<svg id="Слой_1" data-name="Слой 1" xmlns="http://www.w3.org/2000/svg" viewBox="0 0 645.18 265.83"><title>les</title><path d="M-255.84-98.77" transform="translate(-375.3 -15.42)" style="fill:none;stroke:#55f;stroke-miterlimit:10;stroke-width:100px"/><polygon points="279.5 155.16 222.8 174.36 274.34 175.22 220.22 194.63 270.11 194.63 217.7 215.34 267.72 216.07 215.93 236.87 260.18 239.08 211.59 260.06 266.25 260.06 398.2 231.55 405.38 174.68 315.94 194.36 321.46 166.75 362.48 156.81 369.37 96.88 325.91 104.81 333.08 74.99 427.22 56.22 435.62 5.54 283.94 32.48 239.78 48.49 294.99 48.49 237.53 67.82 286.15 70.02 235.36 87.69 287.26 89.9 232.84 108.67 283.94 108.67 226.96 131.31 272.9 131.31 219.95 155.01 279.5 155.16" style="fill:#fff;stroke:#000;stroke-miterlimit:10;stroke-width:9px"/><path d="M967.9,113.31,1012,98.94S987.4,50.66,931.61,51.1c-45.54.35-70.79,26.05-75.66,46.23-6.05,25.08-21.29,76.93,84.64,91.81,25.15,3.53,41.46,33.65,11.36,48.71-15.88,7.94-60.87,6.94-65-28.58L843.76,221s12.72,51.15,74.3,55.39c67.08,4.63,118.37-42.45,89.88-103.72-13.63-29.29-47.68-28-92.7-42.31-9.33-3-28.08-25.64-.79-39.15C930.35,83.38,955.91,87.36,967.9,113.31Z" transform="translate(-375.3 -15.42)" style="fill:#fff;stroke:#000;stroke-miterlimit:10;stroke-width:9px"/><polygon points="4.5 36.95 69.96 36.95 69.96 205.28 161.49 206.14 161.49 260.06 4.5 260.06 4.5 36.95" style="fill:#fff;stroke:#000;stroke-miterlimit:10;stroke-width:9px"/></svg>