<svg id="Слой_1" data-name="Слой 1" xmlns="http://www.w3.org/2000/svg" viewBox="0 0 1393.86 266.3"><title>lettres</title><path d="M-255.84-98.77" transform="translate(-45.2 -16.94)" style="fill:none;stroke:#55f;stroke-miterlimit:10;stroke-width:100px"/><path d="M394.51,135.42c-4.46,9.11-8.46,17.35-12.53,25.56-1.77,3.55-2.86,8.48-5.76,10.13-2.64,1.49-7.32-.58-11.1-1.15a169.31,169.31,0,0,0-51.73.47c-2.5.39-3.64,1.37-4.09,3.68-2.3,11.85-4.58,23.7-7.05,35.52a10.23,10.23,0,0,1-2.65,5.16c-6.08,5.71-12.4,11.17-19.47,17.47,36.05-5.19,71-10.62,106.9-2.93l-15.37,39.48c-40.74-9.41-81.19-6.88-122.33,1,.5-1.72.77-2.95,1.2-4.12,2.51-6.69,4.72-13.52,7.67-20,6-13.21,8.22-27.14,9.77-41.44,3.47-32,9.37-63.54,19.65-94.13a13.35,13.35,0,0,1,4.45-5.95c8.1-6.08,16.44-11.84,24.69-17.72l-.32-1.08-37.39,6.21c.43-1.25.68-2.23,1.1-3.14,4-8.58,7.91-17.2,12.15-25.67a8.59,8.59,0,0,1,4.54-4A300.78,300.78,0,0,1,406.63,45.47c5.43.36,10.81,1.49,16.71,2.34-4.76,13.47-9.36,26.48-13.9,39.3-9.74-1.38-19.05-3.29-28.45-3.9-11.62-.75-23.32-.5-35-.45a5.33,5.33,0,0,0-3.82,2.35A261.07,261.07,0,0,0,315.8,152a14.75,14.75,0,0,0,0,2.44c4-4.48,7.56-8.47,11.21-12.32a9.11,9.11,0,0,1,3.92-2.75C351.55,134.3,372.47,133.68,394.51,135.42Z" transform="translate(-45.2 -16.94)" style="fill:#fff;stroke:#000;stroke-miterlimit:10;stroke-width:9px"/><path d="M705.12,90.64c-16,.2-30.63-.76-44.92-4.84-2.56-.73-5.07-1.65-8.11-2.65,2.21-5.42,4.27-10.49,6.36-15.56,2.64-6.42,5.46-12.76,7.87-19.27,1.09-2.93,2.58-3.49,5.42-2.79,19.19,4.75,38.76,6.63,58.47,7.22,20.3.6,40-3.57,59.64-7.76.51-.11,1-.18,2.17-.37-.73,2.7-1.3,5-1.95,7.21-2.7,9.38-5.5,18.73-8.07,28.15-.65,2.4-1.74,3.51-4.23,3.87-16.81,2.4-33.59,4.93-50.38,7.42a5.52,5.52,0,0,0-3.07,1.15c4.33,2.48,8.55,5.17,13,7.38,3.85,1.9,4.17,4.67,2.7,8a246.4,246.4,0,0,0-20.63,82.39c-1.57,22.29-1.07,44.74-1,67.11,0,4.17-1.05,5.39-4.92,6.42-13.52,3.58-26.92,7.68-40.36,11.6-1.47.42-2.92.94-5.15,1.66C669.53,212.61,685.31,151.55,705.12,90.64Z" transform="translate(-45.2 -16.94)" style="fill:#fff;stroke:#000;stroke-miterlimit:10;stroke-width:9px"/><path d="M1413.3,35.61l-60.19,58.26s-25.08,16.94-28.65-19.18c-2.69-27.07-30.1-9.86-35.07-3.26-8.51,11.29-14.3,46.64,25.19,46.76,43.89.14,71,25,65.36,68.79-.81,6.3-2.44,12.47-7.32,16.54l-62.52,50.63a18.14,18.14,0,0,1-18.77,2.33c-12.36-5.22-15.27-6.35-25.17-17.29-7.52-8.32-13.16-22-15.53-25.66-3.78-5.91-11.58-5.17-17.52-2.57l31.52-31.05s13-3.67,34.24,33.74c4.2,7.4,26.43,8.36,35.12-4.1,16-23,18.47-66.34-42.86-62.56-45.69,2.81-47.16-42.3-47.16-42.3s-4.69-40.16,38.52-57.56c30.77-12.39,48.39-18.16,56-20.46a17.24,17.24,0,0,1,11.34.43c5.41,2.13,12.18,6.85,12.91,17.13C1364,61.63,1413.3,35.61,1413.3,35.61Z" transform="translate(-45.2 -16.94)" style="fill:#fff;stroke:#000;stroke-miterlimit:10;stroke-width:9px"/><path d="M144.51,90.53l-3.09,45.79s-3.73,37.24-4.44,43.77-8.61,48.46,2.66,51.87,39.43,2.25,44.05-2.26,15.3-12.76,17.63-22.85,24.82-27.21,25.79,2.66-18.59,59.66-23.62,61.63-28.36-2.82-46.54-1.6-71.18-4.18-88.25-1.38S45.48,255.58,52.64,246s16.56-5.45,21.41-37.45,12.74-117,12.74-117,1.64-12.71-10-16.32S70.13,50.38,77,50c3.72-.19,45.67.42,73.35,1.51,14.23.56,16.07,29.33,4.69,30.28C155,81.82,147.42,80,144.51,90.53Z" transform="translate(-45.2 -16.94)" style="fill:#fff;stroke:#000;stroke-miterlimit:10;stroke-width:9px"/><path d="M823.08,49.52l65.28-11.65s15.34,17,12.06,32.81l38.39-26.35S955,83.92,1012.62,63.79c0,0-18.67,67.65-113.65,28,0,0-42.33,154.67,9.67,158.83l-63,13.2s-54.93-.78-9.14-182.53C836.52,81.26,838.32,47.71,823.08,49.52Z" transform="translate(-45.2 -16.94)" style="fill:#fff;stroke:#000;stroke-miterlimit:10;stroke-width:9px"/><path d="M1166.69,228.09c-90.82-5.45-74.28-54.54-74.28-54.54s31.52-5.36,84.76-18.48S1145.26,42.4,1145.26,42.4l-101.83-5.07c24.76,17.76-17,132.17-20,154S1093.63,266,1093.63,266l82.57-22.32C1182.15,236.66,1166.69,228.09,1166.69,228.09ZM1112,72.44s35.49,56.39,28.37,71.22-49.08,11.89-49.08,11.89Z" transform="translate(-45.2 -16.94)" style="fill:#fff;stroke:#000;stroke-miterlimit:10;stroke-width:9px"/><path d="M498.06,96.68,483.17,219.76s-7.82,16.67-21.58,19.2-2,30.22,28.26,28.37,71.61,11.5,74.6-19.46c0,0,1.28-11-12.5-12.62s9.76-135.53,9.76-135.53S573.24,81.34,588,126c0,0,26.91,26.77,32.24-23.69,0,0-2.7-43.34-22.21-49.59s-44.63-.32-62.84-1.35-40-7.56-55.6-6-51.8,61.18-32.81,75.88S477.64,96,487.35,92.8,498.06,96.68,498.06,96.68Z" transform="translate(-45.2 -16.94)" style="fill:#fff;stroke:#000;stroke-miterlimit:10;stroke-width:9px"/></svg>