<svg id="Слой_1" data-name="Слой 1" xmlns="http://www.w3.org/2000/svg" viewBox="0 0 659.89 271.41"><title>des</title><path d="M-255.84-98.77" transform="translate(-363.6 -13.15)" style="fill:none;stroke:#55f;stroke-miterlimit:10;stroke-width:100px"/><path d="M422.61,20S391,14.72,389.73,20s-26.32,13.16,15.12,53.28c0,0-25,159.18-27,166.42s-17.76,8.55-4.61,18.42,17.76,8.55,18.42,12.49-2.63,15.13,16.44,5.92,125-75.64,127-133.52S538.38,47,422.61,20Zm-12.49,194.7C422.61,196.27,451.83,63.4,451.83,63.4a158.27,158.27,0,0,1,38.53,11.84C518,127.2,410.12,214.68,410.12,214.68Z" transform="translate(-363.6 -13.15)" style="fill:#fff;stroke:#000;stroke-miterlimit:10;stroke-width:9px"/><path d="M830.76,188.3l49.71-24.93s40.47,81.63,90.36,53.25S838.67,143.81,841.29,100.23s6.15-28.45,25.33-42.38,57.74-24.5,57.74-24.5S957.7,76.61,1014,57.79c0,0-34.48,62.6-120.37,11.89,0,0-10.24,19,29.63,37.29s127,47.19,81.34,124.15C1004.58,231.12,914.63,297.62,830.76,188.3Z" transform="translate(-363.6 -13.15)" style="fill:#fff;stroke:#000;stroke-miterlimit:10;stroke-width:9px"/><path d="M760.25,165.5s-19.66,47.85-106.18,18.35c0,0,7.86-34.74,33.42-43.26s104.88-45.23,89.8-85.21-159.93-27.53-175,15.73-45.23,103.56,0,152.72,70.13,21.63,94.38,23.6,22.94,9.83,42.61,3.28S812,204.82,760.25,165.5ZM624.57,113.39c2.62-39,38-67.19,79.31-55.39s19,49.82-14.42,55.72-55.06,55.05-55.06,55.05S622,152.39,624.57,113.39Z" transform="translate(-363.6 -13.15)" style="fill:#fff;stroke:#000;stroke-miterlimit:10;stroke-width:9px"/></svg>