<svg id="Слой_1" data-name="Слой 1" xmlns="http://www.w3.org/2000/svg" viewBox="0 0 919.23 246.92"><title>rues</title><path d="M-255.84-98.77" transform="translate(-256.98 -14.36)" style="fill:none;stroke:#55f;stroke-miterlimit:10;stroke-width:100px"/><path d="M307.14,32.21l42.59-11.89a256.84,256.84,0,0,1-7.19,54.79c.94-1.26,1.89-2.51,2.81-3.78,10-13.85,20.31-27.44,33.22-38.8,1.38-1.21,2.79-2.38,4.25-3.49,13.43-10.24,23-10.9,37.17-1.71,12.24,7.9,21.94,18.1,23.08,33.53.93,12.58-2.69,24.25-9.58,34.84A80.15,80.15,0,0,1,411,118.4c-11.41,7.71-23.32,14.68-35.84,22.48,10.49,32.25,30,60.31,51.8,87.85l-33.69,26.19c-26-34.55-47.41-71-56.51-114,2.32-1,4.65-1.88,6.85-3,10.48-5.43,21.47-10.12,31.27-16.59,19.52-12.88,24.76-32.17,21.66-54.4a5.87,5.87,0,0,0-1.61-3.28c-2.38-2.19-5-4.16-7.51-6.18-1-.79-2-1.5-3.11-2.31a101.19,101.19,0,0,0-30.51,31.93c-12.32,19.89-19.35,41.87-25.7,64.15-7.56,26.5-15,53-22.84,79.48a75.32,75.32,0,0,1-6.87,15.83c-4.09,7.17-10.42,8.58-16.57,3.07-5.15-4.62-9.38-10.43-13.32-16.18-9.46-13.85-9.08-27.55-.47-42.24a458.37,458.37,0,0,0,24.17-47.87c7.85-18,10.6-37.4,12.14-56.83,1.35-17.13,1.74-34.34,2.56-51.52C306.93,34.13,307,33.3,307.14,32.21Z" transform="translate(-256.98 -14.36)" style="fill:#fff;stroke:#000;stroke-miterlimit:10;stroke-width:9px"/><path d="M832.3,72.58l-3.41,45.3s6.4,9,18.25.65a64.9,64.9,0,0,0,7.57-21c2-11.89,19.08-8.91,19.56,2.05s1,80.92-16.57,85.41-5.23-29.79-17.07-30.52-15.73.27-16.48,6.72-8.89,47.9,2.24,51.36,39,2.53,43.6-1.9,15.24-12.51,17.63-22.48,24.77-26.74,25.49,2.83-18.85,58.9-23.84,60.81-28-3-46-1.94-70.41-4.68-87.32-2.05-22.88-12.63-15.72-22,16.42-5.26,21.47-36.9S775.17,73.21,775.17,73.21s1.72-12.56-9.8-16.22-6.37-24.7.43-25,107.86-.16,117.63-1.73,16.06-4.86,19.73,1,11.81,19.16,9,41.24-5.21,19.53-13.48,20.64-8.45-28.77-48.61-29.67C850.06,63.51,835.26,62.21,832.3,72.58Z" transform="translate(-256.98 -14.36)" style="fill:#fff;stroke:#000;stroke-miterlimit:10;stroke-width:9px"/><path d="M498.42,42.54l52.29-14.86s24.86,2.44,16.39,38.73-35.83,151.76-4.73,147.44S603,203.76,603,203.76,644.91,73.61,614.9,46.25c0,0,41.38-18.85,46.84-16.85s30.49,9.88,28.64,18.67-42.26,184.71-13.1,187l-58.74,15.07s-15.07-17.44-12.89-28.22c0,0-72.29,26.42-82,25.89S474.8,230.24,493,142,513.1,54,498.42,42.54Z" transform="translate(-256.98 -14.36)" style="fill:#fff;stroke:#000;stroke-miterlimit:10;stroke-width:9px"/><path d="M1125.92,183.56c1,13.07-1.64,24.51-24.74,32.61-17.21,6-57.8,4.73-62.06-31.76l-44.37,12.1s13.07,52.55,76.35,56.91c68.92,4.75,121.62-43.62,92.34-106.57-14-30.1-49-28.77-95.24-43.48-9.58-3-28.86-26.34-.82-40.22,16.35-8.09,42.61-4,54.93,22.67l45.26-14.77S1142.35,21.44,1085,21.89c-46.79.37-72.73,26.77-77.74,47.51L956.91,83.57l50,1.2L964.74,101h53.55l-52.95,24.07,56.56-7.82-54.23,29.22L1037,131.33l-58.76,32.21,78.77-19.83-45.73,28.9L1085.69,157l-28.28,18.66,56.09-8.42-29.62,21.66Z" transform="translate(-256.98 -14.36)" style="fill:#fff;stroke:#000;stroke-miterlimit:10;stroke-width:9px"/></svg>