<svg id="Слой_1" data-name="Слой 1" xmlns="http://www.w3.org/2000/svg" viewBox="0 0 493.41 268.03"><title>de</title><path d="M-255.84-98.77" transform="translate(-491.67 -14.84)" style="fill:none;stroke:#55f;stroke-miterlimit:10;stroke-width:100px"/><path d="M980,186.56c-9.21-25.08-17.4-29.3-17.4-29.3L925.22,192.7s18.42,30.19-4.61,47.59S874,205,883.25,178.88c0,0,51.18-44.52,70.62-55.78s-37.35-77.78-32.75-98.77-70.11,30.2-76.76,42-67.55,219.53,45,211.86C889.4,278.16,989.18,211.63,980,186.56ZM890.42,93.93c-1,16.38,20.47,36.33,18.93,40.94s-29.68,22.39-29.68,22.39C874,125.41,891.44,77.56,890.42,93.93Z" transform="translate(-491.67 -14.84)" style="fill:#fff;stroke:#000;stroke-miterlimit:10;stroke-width:9px"/><path d="M581,267.49S767.22,315.85,757.55,139C755.21,113.47,748.92,29.05,574,57.48L519.9,72.2,574.07,81l-55.15,16.1L581.39,102l-62.47,17.57,60.52,3.91L518.92,141l61,4.88-61,15.34,61,5.16-58.08,14.15,59,4.39-62,19L578,206.42l-59.05,16.1L578,229.36,521.36,242,577,249.85l-50.76,12.69Zm37.8-35.79-3.49-141c98.24-17,93.43,60.25,93.43,60.25C711.75,250.91,618.75,231.7,618.75,231.7Z" transform="translate(-491.67 -14.84)" style="fill:#fff;stroke:#000;stroke-miterlimit:10;stroke-width:9px"/></svg>