<svg id="Слой_1" data-name="Слой 1" xmlns="http://www.w3.org/2000/svg" viewBox="0 0 851.57 284.28"><title>chau</title><path d="M-255.84-98.77" transform="translate(-324 -6.71)" style="fill:none;stroke:#55f;stroke-miterlimit:10;stroke-width:100px"/><path d="M606.58,14.91s-88,228.93-41.7,259.47,44.32-47.61,63.13-76.5c0,0,9.41,59.8,43.67,55.77s53.76-37,58.46-68.54c0,0-4-12.09-16.8-5.37s-20.16,48.38-39,47.7,10.08-65.17,22.85-84-28.9-43.68-33.6-42.34-71.89,105.5-75.93,120.28,53.09-159.25,64.51-176S617.41,1.26,606.58,14.91Z" transform="translate(-324 -6.71)" style="fill:#fff;stroke:#000;stroke-miterlimit:10;stroke-width:9px"/><path d="M995.08,62.29s-4.29,131.94,0,154.46,10.73,68.65,83.67,69.72,85.81-46.12,88-68.64S1171,62.29,1171,62.29h-48.27s0,135.16-3.22,147-5.13,31.1-37.42,31.1-39.81-19.31-38.74-39.69-1.07-138.37-1.07-138.37Z" transform="translate(-324 -6.71)" style="fill:#fff;stroke:#000;stroke-miterlimit:10;stroke-width:9px"/><polygon points="462.3 187.57 503.55 187.57 534.9 100.67 571.2 187.57 605.85 187.57 555.53 52.91 514.28 52.91 462.3 187.57" style="fill:#fff;stroke:#000;stroke-miterlimit:10;stroke-width:9px"/><polygon points="452.4 214.77 619.05 214.77 642.98 279.78 609.98 279.78 594.3 247.28 476.33 247.28 462.3 279.78 427.65 279.78 452.4 214.77" style="fill:#fff;stroke:#000;stroke-miterlimit:10;stroke-width:9px"/><path d="M455.7,137.39h43.22s4.54-79.3-70.6-74.92c-98.87,5.76-139.76,206-50.43,221.88,0,0,83.57,20.18,102.3-63.39L437,219.52s-10.09,40.34-51.87,31.7S367.5,90.63,428.32,92.73C470.1,94.17,455.7,137.39,455.7,137.39Z" transform="translate(-324 -6.71)" style="fill:#fff;stroke:#000;stroke-miterlimit:10;stroke-width:9px"/></svg>