<svg id="Слой_1" data-name="Слой 1" xmlns="http://www.w3.org/2000/svg" viewBox="0 0 1010.31 256.08"><title>mont</title><path d="M-255.84-98.77" transform="translate(-113.96 -29.58)" style="fill:none;stroke:#55f;stroke-miterlimit:10;stroke-width:100px"/><path d="M739.73,64.12l17,10.41-.24,65.58-15.6,11.83,14.36,10.53-.32,79.11-16.88,10.49-.37,19,72.66.22.93-16.87-15.69-11,4.67-108.49,63.86,134.3,54.35-.37,1.1-19.83s-17.34-5.61-17.81-9.45,5-77.58,5-77.58l14.88-11-13.73-9.65S905,84,908.74,77,925,65.25,925,65.25l1.1-19.82-70.54-1.8-2.52,21,17,11.52-3.5,111.94L799.9,43.5,741,41.92Z" transform="translate(-113.96 -29.58)" style="fill:#fff;stroke:#000;stroke-miterlimit:10;stroke-width:9px"/><path d="M647.73,90.67H502.54a51.69,51.69,0,0,0-51.69,51.69V218.5a51.69,51.69,0,0,0,51.69,51.69H647.73a51.68,51.68,0,0,0,51.68-51.69V142.36A51.68,51.68,0,0,0,647.73,90.67Zm-4.81,110.52a28.19,28.19,0,0,1-28.19,28.2H535.54a28.2,28.2,0,0,1-28.2-28.2V159.66a28.2,28.2,0,0,1,28.2-28.19h79.19a28.19,28.19,0,0,1,28.19,28.19Z" transform="translate(-113.96 -29.58)" style="fill:#fff;stroke:#000;stroke-miterlimit:10;stroke-width:9px"/><polygon points="80.34 44.72 184.59 21.59 197.06 115.46 229.56 15.26 272.69 6.21 307.46 221.36 267.11 227.26 233.04 131.67 205.82 231.48 158.76 240.34 148.81 148.56 116.51 244.84 24.3 250.17 78.69 225.91 28.83 224.78 82.89 207.07 35.1 204.07 89.03 188.98 44.42 188.11 92.65 168.8 49.47 165.37 101.51 148.87 54.37 145.91 106.43 128.75 54.15 123.56 112.11 106.7 59.47 108.72 116.32 87.86 72.29 88.33 125.11 69.25 71.32 67.92 123.49 48.81 80.34 44.72" style="fill:#fff;stroke:#000;stroke-miterlimit:10;stroke-width:9px"/><path d="M1018.15,77l35.79-42.94h20V77h40.08v20h-38.65s-14.32,124.53,2.86,136,35.79,5.73,35.79,5.73-35.79,57.26-95.91,1.43V94.2H996.68V78.45Z" transform="translate(-113.96 -29.58)" style="fill:#fff;stroke:#000;stroke-miterlimit:10;stroke-width:9px"/></svg>