<svg id="Слой_1" data-name="Слой 1" xmlns="http://www.w3.org/2000/svg" viewBox="0 0 226.47 245.63"><title>s10</title><path d="M-318.62-98.77" transform="translate(-14.02 -34.62)" style="fill:none;stroke:#55f;stroke-miterlimit:10;stroke-width:100px"/><path d="M214.72,53.29l-60.19,58.26s-25.07,16.94-28.65-19.19c-2.69-27.06-30.09-9.86-35.07-3.25-8.51,11.28-14.3,46.63,25.19,46.76,43.89.13,71,25,65.36,68.78-.81,6.31-2.44,12.48-7.32,16.55l-62.52,50.63c-5.23,4.36-12.5,5-18.77,2.33-12.36-5.22-15.27-6.35-25.17-17.29-7.52-8.32-13.16-22-15.53-25.66-3.78-5.91-11.58-5.17-17.52-2.57l31.52-31s13-3.67,34.24,33.73c4.2,7.41,26.43,8.37,35.12-4.09,16-23,18.47-66.34-42.86-62.56-45.69,2.81-47.16-42.3-47.16-42.3S40.71,82.21,83.91,64.81c30.77-12.39,48.39-18.17,56-20.46a17.23,17.23,0,0,1,11.34.43c5.41,2.13,12.18,6.85,12.91,17.13C165.37,79.31,214.72,53.29,214.72,53.29Z" transform="translate(-14.02 -34.62)" style="fill:#fff;stroke:#000;stroke-miterlimit:10;stroke-width:9px"/></svg>