<svg id="Слой_1" data-name="Слой 1" xmlns="http://www.w3.org/2000/svg" viewBox="0 0 176.48 271.41"><title>d11</title><path d="M-318.62-98.77" transform="translate(-40.92 -13.15)" style="fill:none;stroke:#55f;stroke-miterlimit:10;stroke-width:100px"/><path d="M99.94,20s-31.57-5.26-32.89,0S40.74,33.14,82.18,73.26c0,0-25,159.18-27,166.42s-17.76,8.55-4.6,18.42S68.37,266.65,69,270.59s-2.63,15.13,16.44,5.92,125-75.64,127-133.52S215.71,47,99.94,20ZM87.45,214.68C99.94,196.27,129.16,63.4,129.16,63.4a158.27,158.27,0,0,1,38.53,11.84C195.32,127.2,87.45,214.68,87.45,214.68Z" transform="translate(-40.92 -13.15)" style="fill:#fff;stroke:#000;stroke-miterlimit:10;stroke-width:9px"/></svg>