<svg id="Слой_1" data-name="Слой 1" xmlns="http://www.w3.org/2000/svg" viewBox="0 0 212.89 231.21"><title>e12</title><path d="M-318.62-98.77" transform="translate(-17.03 -33.25)" style="fill:none;stroke:#55f;stroke-miterlimit:10;stroke-width:100px"/><path d="M203.38,172.1S183.72,219.94,97.2,190.45c0,0,7.86-34.74,33.43-43.26S235.5,102,220.42,62,60.49,34.45,45.42,77.71s-45.23,103.56,0,152.72,70.13,21.63,94.38,23.6,22.94,9.83,42.61,3.28S255.16,211.42,203.38,172.1ZM67.7,120c2.62-39,38-67.19,79.31-55.39s19,49.82-14.42,55.72-55.06,55.05-55.06,55.05S65.08,159,67.7,120Z" transform="translate(-17.03 -33.25)" style="fill:#fff;stroke:#000;stroke-miterlimit:10;stroke-width:9px"/></svg>