<svg id="Слой_1" data-name="Слой 1" xmlns="http://www.w3.org/2000/svg" viewBox="0 0 190.74 246.92"><title>r14</title><path d="M-318.62-98.77" transform="translate(-33.79 -19.29)" style="fill:none;stroke:#55f;stroke-miterlimit:10;stroke-width:100px"/><path d="M84,37.14l42.59-11.89A256.83,256.83,0,0,1,119.36,80c.93-1.26,1.88-2.51,2.8-3.78,10-13.85,20.32-27.44,33.23-38.8,1.37-1.21,2.79-2.38,4.24-3.49,13.43-10.24,23-10.9,37.18-1.71,12.24,7.9,21.94,18.1,23.08,33.53.93,12.58-2.7,24.25-9.59,34.84a80.15,80.15,0,0,1-22.5,22.7C176.39,131,164.48,138,152,145.81c10.5,32.25,30,60.31,51.81,87.85l-33.69,26.19c-26-34.55-47.41-71-56.52-114,2.32-1,4.66-1.88,6.85-3,10.48-5.43,21.47-10.12,31.27-16.59,19.53-12.88,24.77-32.17,21.67-54.4a5.88,5.88,0,0,0-1.62-3.27c-2.38-2.2-5-4.16-7.5-6.19-1-.79-2-1.5-3.12-2.31A101.38,101.38,0,0,0,130.61,92c-12.33,19.89-19.36,41.87-25.71,64.15-7.56,26.51-15,53-22.83,79.48a75.32,75.32,0,0,1-6.87,15.83c-4.09,7.17-10.42,8.58-16.58,3.07-5.14-4.62-9.37-10.43-13.31-16.18-9.47-13.85-9.08-27.55-.48-42.24A458.37,458.37,0,0,0,69,148.24c7.86-18,10.61-37.4,12.14-56.83,1.35-17.13,1.74-34.34,2.56-51.52C83.74,39.06,83.85,38.23,84,37.14Z" transform="translate(-33.79 -19.29)" style="fill:#fff;stroke:#000;stroke-miterlimit:10;stroke-width:9px"/></svg>