<svg id="Слой_1" data-name="Слой 1" xmlns="http://www.w3.org/2000/svg" viewBox="0 0 220.9 232.07"><title>u15</title><path d="M-318.62-98.77" transform="translate(-15.02 -33.06)" style="fill:none;stroke:#55f;stroke-miterlimit:10;stroke-width:100px"/><path d="M29.73,52.48,82,37.62s24.86,2.44,16.38,38.73S62.58,228.11,93.67,223.79s40.6-10.1,40.6-10.1S176.21,83.54,146.2,56.19c0,0,41.38-18.85,46.84-16.85s30.5,9.88,28.64,18.67-42.26,184.71-13.09,187l-58.75,15.07S134.78,242.64,137,231.86c0,0-72.29,26.42-82,25.89S6.1,240.18,24.28,151.94,44.41,63.89,29.73,52.48Z" transform="translate(-15.02 -33.06)" style="fill:#fff;stroke:#000;stroke-miterlimit:10;stroke-width:9px"/></svg>