<svg id="Слой_1" data-name="Слой 1" xmlns="http://www.w3.org/2000/svg" viewBox="0 0 184.92 233.29"><title>e16</title><path d="M-318.62-98.77" transform="translate(-36.7 -20.74)" style="fill:none;stroke:#55f;stroke-miterlimit:10;stroke-width:100px"/><path d="M136.29,69.91l-3.41,45.29s6.4,9,18.25.65a64.9,64.9,0,0,0,7.57-21c2-11.89,19.08-8.9,19.56,2s1,80.92-16.57,85.42-5.23-29.8-17.07-30.53-15.73.28-16.48,6.73-8.89,47.89,2.24,51.35,39,2.53,43.6-1.9,15.24-12.51,17.63-22.48,24.77-26.73,25.5,2.84-18.86,58.89-23.85,60.8-28-3-46-1.93-70.4-4.69-87.32-2.06-22.88-12.63-15.72-22,16.42-5.26,21.47-36.89S79.16,70.54,79.16,70.54,80.88,58,69.36,54.31s-6.37-24.7.43-25,107.86-.16,117.63-1.72,16.06-4.87,19.73,1,11.81,19.16,9,41.24-5.21,19.53-13.48,20.65-8.45-28.78-48.61-29.68C154.05,60.83,139.25,59.53,136.29,69.91Z" transform="translate(-36.7 -20.74)" style="fill:#fff;stroke:#000;stroke-miterlimit:10;stroke-width:9px"/></svg>