<svg id="Слой_1" data-name="Слой 1" xmlns="http://www.w3.org/2000/svg" viewBox="0 0 249.33 240.85"><title>s17</title><path d="M-318.62-98.77" transform="translate(-4.73 -25.71)" style="fill:none;stroke:#55f;stroke-miterlimit:10;stroke-width:100px"/><path d="M203.77,191.88c1,13.07-1.63,24.51-24.73,32.61-17.22,6-57.81,4.74-62.07-31.75L72.6,204.83S85.67,257.38,149,261.74c68.92,4.75,121.62-43.62,92.35-106.57-14-30.1-49-28.77-95.25-43.47-9.58-3-28.85-26.34-.82-40.23,16.35-8.09,42.61-4,54.93,22.67l45.26-14.77s-25.22-49.6-82.55-49.16C116.08,30.58,90.14,57,85.13,77.72L34.77,91.89,84.71,93.1,42.59,109.34H96.14L43.19,133.41l56.56-7.82L45.52,154.82l69.37-15.16-58.76,32.2L134.9,152l-45.73,28.9,74.37-15.63L135.26,184l56.09-8.42L161.73,197.2Z" transform="translate(-4.73 -25.71)" style="fill:#fff;stroke:#000;stroke-miterlimit:10;stroke-width:9px"/></svg>