<svg id="Слой_1" data-name="Слой 1" xmlns="http://www.w3.org/2000/svg" viewBox="0 0 270.74 230.83"><title>d18</title><path d="M-292.29-98.77" transform="translate(-8.74 -33.44)" style="fill:none;stroke:#55f;stroke-miterlimit:10;stroke-width:100px"/><path d="M98,253.72s186.28,48.36,176.6-128.49C272.29,99.7,266,15.28,91.12,43.71L37,58.43l54.17,8.79L36,83.32l62.47,4.89L36,105.77l60.52,3.91L36,127.25l61,4.88L36,147.47l61,5.16L38.92,166.78,98,171.17l-62,19,59.06,2.44L36,208.75l59.06,6.84L38.43,228.28l55.64,7.8L43.31,248.77Zm37.81-35.79-3.5-141c98.24-17,93.44,60.25,93.44,60.25C228.82,237.14,135.83,217.93,135.83,217.93Z" transform="translate(-8.74 -33.44)" style="fill:#fff;stroke:#000;stroke-miterlimit:10;stroke-width:9px"/></svg>