<svg id="Слой_1" data-name="Слой 1" xmlns="http://www.w3.org/2000/svg" viewBox="0 0 167.6 268.03"><title>e19</title><path d="M-292.29-98.77" transform="translate(-58.53 -8.55)" style="fill:none;stroke:#55f;stroke-miterlimit:10;stroke-width:100px"/><path d="M221,180.26c-9.22-25.07-17.4-29.29-17.4-29.29l-37.36,35.44s18.42,30.19-4.61,47.59-46.56-35.31-37.35-61.41c0,0,51.17-44.52,70.62-55.78S157.57,39,162.18,18,92.07,48.24,85.41,60s-67.55,219.53,45,211.86C130.45,271.87,230.24,205.34,221,180.26ZM131.47,87.64c-1,16.38,20.47,36.33,18.94,40.94S120.72,151,120.72,151C115.1,119.11,132.49,71.26,131.47,87.64Z" transform="translate(-58.53 -8.55)" style="fill:#fff;stroke:#000;stroke-miterlimit:10;stroke-width:9px"/></svg>