<svg id="Слой_1" data-name="Слой 1" xmlns="http://www.w3.org/2000/svg" viewBox="0 0 251.28 264.56"><title>e2</title><path d="M-318.62-98.77" transform="translate(-3.59 -16.05)" style="fill:none;stroke:#55f;stroke-miterlimit:10;stroke-width:100px"/><polygon points="89.68 155.16 32.99 174.36 84.53 175.22 30.4 194.63 80.3 194.63 27.89 215.34 77.91 216.07 26.11 236.87 70.36 239.08 21.77 260.06 76.43 260.06 208.39 231.55 215.56 174.68 126.12 194.36 131.64 166.75 172.66 156.81 179.55 96.88 136.09 104.81 143.27 74.99 237.4 56.22 245.8 5.54 94.13 32.48 49.96 48.49 105.17 48.49 47.71 67.82 96.34 70.02 45.54 87.69 97.44 89.9 43.02 108.67 94.13 108.67 37.14 131.31 83.09 131.31 30.14 155.01 89.68 155.16" style="fill:#fff;stroke:#000;stroke-miterlimit:10;stroke-width:9px"/></svg>