<svg id="Слой_1" data-name="Слой 1" xmlns="http://www.w3.org/2000/svg" viewBox="0 0 312.63 255.25"><title>m24</title><path d="M-255.84-98.77" transform="translate(-12.9 -16.44)" style="fill:none;stroke:#55f;stroke-miterlimit:10;stroke-width:100px"/><polygon points="80.34 43.89 184.59 20.76 197.06 114.63 229.56 14.42 272.69 5.37 307.46 220.52 267.11 226.43 233.04 130.84 205.82 230.65 158.76 239.51 148.81 147.73 116.51 244 24.3 249.34 78.69 225.07 28.83 223.95 82.89 206.24 35.1 203.24 89.03 188.15 44.42 187.27 92.65 167.97 49.47 164.53 101.51 148.04 54.37 145.07 106.43 127.92 54.15 122.73 112.11 105.87 59.47 107.89 116.32 87.03 72.29 87.5 125.11 68.41 71.32 67.09 123.49 47.98 80.34 43.89" style="fill:#fff;stroke:#000;stroke-miterlimit:10;stroke-width:9px"/></svg>