<svg id="Слой_1" data-name="Слой 1" xmlns="http://www.w3.org/2000/svg" viewBox="0 0 257.56 188.51"><title>025</title><path d="M-268.74-115.21" transform="translate(-27.54 -42.51)" style="fill:none;stroke:#55f;stroke-miterlimit:10;stroke-width:100px"/><path d="M228.91,47H83.72A51.68,51.68,0,0,0,32,98.69v76.15a51.68,51.68,0,0,0,51.68,51.68H228.91a51.69,51.69,0,0,0,51.69-51.68V98.69A51.69,51.69,0,0,0,228.91,47ZM224.1,157.53a28.19,28.19,0,0,1-28.19,28.19H116.72a28.19,28.19,0,0,1-28.19-28.19V116a28.19,28.19,0,0,1,28.19-28.19h79.19A28.19,28.19,0,0,1,224.1,116Z" transform="translate(-27.54 -42.51)" style="fill:#fff;stroke:#000;stroke-miterlimit:10;stroke-width:9px"/></svg>