<svg id="Слой_1" data-name="Слой 1" xmlns="http://www.w3.org/2000/svg" viewBox="0 0 197.77 238.52"><title>n26</title><path d="M-255.84-98.77" transform="translate(-74.86 -29.54)" style="fill:none;stroke:#55f;stroke-miterlimit:10;stroke-width:100px"/><path d="M81.49,56.36l17,10.41-.24,65.57-15.6,11.83L97,154.7l-.32,79.12L79.82,244.3l-.37,19,72.66.23.93-16.88-15.69-11L142,127.16l63.86,134.29,54.35-.36,1.1-19.83s-17.34-5.62-17.81-9.45,5-77.59,5-77.59l14.88-11-13.73-9.65s-2.93-57.29.85-64.27,16.28-11.79,16.28-11.79l1.1-19.83-70.54-1.8-2.52,21,17,11.52-3.5,112L141.66,35.73,82.72,34.16Z" transform="translate(-74.86 -29.54)" style="fill:#fff;stroke:#000;stroke-miterlimit:10;stroke-width:9px"/></svg>