<svg id="Слой_1" data-name="Слой 1" xmlns="http://www.w3.org/2000/svg" viewBox="0 0 182.15 234.65"><title>s3</title><path d="M-318.62-98.77" transform="translate(-28.23 -26.15)" style="fill:none;stroke:#55f;stroke-miterlimit:10;stroke-width:100px"/><path d="M157.8,92.87l44-14.38S177.3,30.22,121.51,30.65C76,31,50.72,56.7,45.85,76.89c-6.05,25.07-21.29,76.92,84.63,91.8,25.16,3.54,41.47,33.66,11.36,48.72-15.87,7.94-60.86,6.93-65-28.58L33.65,200.6S46.37,251.74,108,256c67.08,4.62,118.37-42.46,89.87-103.73-13.62-29.29-47.67-28-92.69-42.3-9.33-3-28.09-25.64-.8-39.15C120.25,62.93,145.81,66.91,157.8,92.87Z" transform="translate(-28.23 -26.15)" style="fill:#fff;stroke:#000;stroke-miterlimit:10;stroke-width:9px"/></svg>