<svg id="" data-name="" xmlns="http://www.w3.org/2000/svg" ><title>e5</title><path d="M-318.62-98.77" transform="translate(-28.52 -31.85)" style="fill:none;stroke:#55f;stroke-miterlimit:10;stroke-width:100px"/><path d="M180.05,127c-4.46,9.11-8.47,17.35-12.54,25.56-1.76,3.55-2.86,8.48-5.76,10.13-2.63,1.49-7.32-.58-11.09-1.15a169.3,169.3,0,0,0-51.73.47c-2.51.39-3.64,1.37-4.09,3.68-2.31,11.85-4.59,23.7-7,35.52a10.39,10.39,0,0,1-2.65,5.16C79.05,212,72.73,217.5,65.66,223.8c36.06-5.19,71-10.62,106.9-2.93-5.22,13.41-10.23,26.28-15.36,39.48-40.75-9.41-81.2-6.88-122.33,1,.49-1.72.76-3,1.2-4.12,2.51-6.69,4.71-13.52,7.66-20,6-13.21,8.23-27.14,9.78-41.44,3.46-32,9.37-63.54,19.65-94.13a13.21,13.21,0,0,1,4.45-6C85.71,89.61,94,83.85,102.29,78L102,76.89,64.58,83.1c.44-1.25.68-2.23,1.1-3.14,4-8.58,7.92-17.2,12.15-25.67a8.59,8.59,0,0,1,4.54-4A300.81,300.81,0,0,1,192.16,37c5.43.36,10.82,1.49,16.72,2.34L195,78.65c-9.73-1.39-19.05-3.29-28.44-3.9-11.63-.75-23.33-.5-35-.45a5.33,5.33,0,0,0-3.83,2.35,261.12,261.12,0,0,0-26.37,66.86,13.43,13.43,0,0,0,0,2.45c4.06-4.48,7.56-8.47,11.22-12.33a9.08,9.08,0,0,1,3.91-2.74C137.09,125.84,158,125.22,180.05,127Z" transform="translate(-28.52 -31.85)" style="fill:#fff;stroke:#000;stroke-miterlimit:10;stroke-width:9px"/></svg>