<svg id="Слой_1" data-name="Слой 1" xmlns="http://www.w3.org/2000/svg" viewBox="0 0 187.85 232.52"><title>t6</title><path d="M-318.62-98.77" transform="translate(-24.98 -32.59)" style="fill:none;stroke:#55f;stroke-miterlimit:10;stroke-width:100px"/><path d="M86.16,88.65,71.27,211.72s-7.82,16.67-21.58,19.2-2,30.22,28.26,28.37,71.61,11.51,74.6-19.46c0,0,1.28-11-12.5-12.62s9.76-135.52,9.76-135.52,11.53-18.39,26.27,26.25c0,0,26.9,26.77,32.23-23.69,0,0-2.7-43.34-22.2-49.58s-44.64-.32-62.85-1.36-40-7.56-55.59-6S15.86,98.52,34.86,113.22s30.88-25.3,40.59-28.46S86.16,88.65,86.16,88.65Z" transform="translate(-24.98 -32.59)" style="fill:#fff;stroke:#000;stroke-miterlimit:10;stroke-width:9px"/></svg>