<svg id="Слой_1" data-name="Слой 1" xmlns="http://www.w3.org/2000/svg" viewBox="0 0 152.1 244.25"><title>t7</title><path d="M-318.62-98.77" transform="translate(-53.21 -27.03)" style="fill:none;stroke:#55f;stroke-miterlimit:10;stroke-width:100px"/><path d="M112.23,78.68c-16,.21-30.63-.76-44.92-4.83-2.57-.74-5.07-1.65-8.11-2.65,2.21-5.42,4.27-10.5,6.35-15.56C68.2,49.22,71,42.87,73.43,36.37c1.09-2.94,2.58-3.5,5.42-2.8,19.19,4.75,38.75,6.64,58.47,7.22,20.3.6,40-3.57,59.64-7.75.51-.11,1-.18,2.17-.38-.73,2.7-1.31,5-1.95,7.21-2.7,9.38-5.5,18.74-8.07,28.16-.65,2.39-1.74,3.51-4.23,3.86-16.81,2.4-33.59,4.94-50.38,7.42a5.62,5.62,0,0,0-3.07,1.16c4.33,2.48,8.55,5.17,13,7.37,3.85,1.9,4.17,4.67,2.69,8a246.52,246.52,0,0,0-20.63,82.39c-1.56,22.28-1.06,44.73-1,67.1,0,4.17-1,5.4-4.92,6.42-13.53,3.58-26.92,7.68-40.36,11.6-1.47.43-2.92.94-5.15,1.66C76.64,200.65,92.42,139.6,112.23,78.68Z" transform="translate(-53.21 -27.03)" style="fill:#fff;stroke:#000;stroke-miterlimit:10;stroke-width:9px"/></svg>