<svg id="Слой_1" data-name="Слой 1" xmlns="http://www.w3.org/2000/svg" viewBox="0 0 247.48 320.27"><title>e19frame</title><path d="M-782-18.94" transform="translate(-33.1 -28.63)" style="fill:none;stroke:#55f;stroke-miterlimit:10;stroke-width:100px"/><rect x="4.5" y="4.5" width="238.48" height="311.27" style="fill:#fff;stroke:#000;stroke-miterlimit:10;stroke-width:9px"/><path d="M235.54,226.47c-9.21-25.08-17.4-29.3-17.4-29.3l-37.36,35.44s18.43,30.19-4.6,47.59-46.57-35.31-37.36-61.41c0,0,51.17-44.52,70.62-55.78s-37.36-77.78-32.75-98.76-70.11,30.19-76.76,42S32.38,325.75,145,318.07C145,318.07,244.75,251.54,235.54,226.47ZM146,133.84c-1,16.38,20.47,36.34,18.94,40.94s-29.68,22.39-29.68,22.39C129.61,165.32,147,117.47,146,133.84Z" transform="translate(-33.1 -28.63)" style="fill:#fff;stroke:#000;stroke-miterlimit:10;stroke-width:9px"/></svg>