<svg id="Слой_1" data-name="Слой 1" xmlns="http://www.w3.org/2000/svg" viewBox="0 0 247.48 320.27"><title>h21frame</title><path d="M-782-18.94" transform="translate(-33.1 -28.63)" style="fill:none;stroke:#55f;stroke-miterlimit:10;stroke-width:100px"/><rect x="4.5" y="4.5" width="238.48" height="311.27" style="fill:#fff;stroke:#000;stroke-miterlimit:10;stroke-width:9px"/><path d="M122.65,57.4S34.61,286.33,81,316.87s44.31-47.61,63.13-76.5c0,0,9.4,59.8,43.67,55.77s53.75-37,58.46-68.54c0,0-4-12.09-16.8-5.37s-20.16,48.38-39,47.7,10.08-65.17,22.84-84-28.89-43.68-33.59-42.33-71.9,105.49-75.93,120.27,53.08-159.25,64.51-176S133.47,43.75,122.65,57.4Z" transform="translate(-33.1 -28.63)" style="fill:#fff;stroke:#000;stroke-miterlimit:10;stroke-width:9px"/></svg>