<svg id="Слой_1" data-name="Слой 1" xmlns="http://www.w3.org/2000/svg" viewBox="0 0 247.48 320.27"><title>l4frame</title><path d="M-782-18.94" transform="translate(-33.1 -28.63)" style="fill:none;stroke:#55f;stroke-miterlimit:10;stroke-width:100px"/><rect x="4.5" y="4.5" width="238.48" height="311.27" style="fill:#fff;stroke:#000;stroke-miterlimit:10;stroke-width:9px"/><path d="M162.93,118.48l-3.09,45.8s-3.73,37.24-4.44,43.77-8.61,48.46,2.66,51.87,39.43,2.25,44.05-2.27,15.3-12.75,17.63-22.85,24.82-27.21,25.78,2.67-18.59,59.66-23.61,61.63-28.36-2.82-46.54-1.6-71.18-4.18-88.25-1.39S63.9,283.53,71.06,274s16.55-5.44,21.41-37.45,12.74-117,12.74-117,1.64-12.71-10-16.32S88.55,78.34,95.42,78c3.71-.19,45.67.42,73.35,1.51,14.23.56,16.07,29.32,4.68,30.28C173.45,109.78,165.84,108,162.93,118.48Z" transform="translate(-33.1 -28.63)" style="fill:#fff;stroke:#000;stroke-miterlimit:10;stroke-width:9px"/></svg>