<svg id="Слой_1" data-name="Слой 1" xmlns="http://www.w3.org/2000/svg" viewBox="0 0 247.48 320.27"><title>s3frame</title><path d="M-782-18.94" transform="translate(-35.58 -40.76)" style="fill:none;stroke:#55f;stroke-miterlimit:10;stroke-width:100px"/><rect x="4.5" y="4.5" width="238.48" height="311.27" style="fill:#fff;stroke:#000;stroke-miterlimit:10;stroke-width:9px"/><path d="M197.35,150.29l44.05-14.38s-24.55-48.27-80.34-47.83c-45.54.35-70.79,26-75.66,46.23-6.05,25.07-21.29,76.93,84.64,91.8,25.15,3.54,41.46,33.66,11.36,48.72-15.88,7.94-60.87,6.93-65-28.58L73.21,258s12.72,51.15,74.3,55.39C214.59,318,265.88,271,237.39,209.69c-13.63-29.3-47.68-28-92.7-42.31-9.33-3-28.08-25.64-.79-39.15C159.8,120.36,185.36,124.34,197.35,150.29Z" transform="translate(-35.58 -40.76)" style="fill:#fff;stroke:#000;stroke-miterlimit:10;stroke-width:9px"/></svg>