<svg id="Слой_1" data-name="Слой 1" xmlns="http://www.w3.org/2000/svg" viewBox="0 0 580.64 751.1"><title>2</title><path d="M225,85.85l131.38-36.7c-1.1,58.45-9.1,113.62-22.16,169,2.88-3.89,5.82-7.74,8.65-11.67,30.86-42.73,62.67-84.64,102.49-119.69q6.36-5.61,13.1-10.77c41.43-31.58,70.83-33.61,114.69-5.28,37.75,24.39,67.68,55.84,71.19,103.46C647.22,213,636,249,614.79,281.69a247,247,0,0,1-69.42,70.05c-35.2,23.78-71.94,45.28-110.57,69.35,32.38,99.48,92.68,186,159.82,271L490.7,772.88C410.47,666.3,344.44,554,316.35,421.18c7.15-3.12,14.36-5.79,21.12-9.3,32.34-16.75,66.24-31.2,96.48-51.16,60.23-39.75,76.39-99.24,66.82-167.84a18,18,0,0,0-5-10.09C488.46,176,480.45,170,472.64,163.7c-3-2.42-6.19-4.61-9.6-7.12-39.17,25.81-69.71,59.15-94.1,98.51-38,61.34-59.71,129.17-79.3,197.88-23.32,81.77-46.4,163.63-70.45,245.19A231.91,231.91,0,0,1,198,747c-12.62,22.11-32.16,26.46-51.13,9.46-15.88-14.23-28.93-32.15-41.08-49.92-29.2-42.71-28-85-1.47-130.28,27.83-47.52,52.48-97.22,74.56-147.7,24.24-55.42,32.72-115.36,37.45-175.29,4.17-52.86,5.37-106,7.9-158.93C224.36,91.77,224.69,89.22,225,85.85Z" transform="translate(-74.15 -35.91)" style="fill:#fff;stroke:#000;stroke-miterlimit:10;stroke-width:20px"/><path d="M-122.7,72.6" transform="translate(-74.15 -35.91)" style="fill:none;stroke:#55f;stroke-miterlimit:10;stroke-width:100px"/></svg>