<svg id="Слой_1" data-name="Слой 1" xmlns="http://www.w3.org/2000/svg" viewBox="0 0 466.35 775.72"><title>11111</title><rect x="150.78" y="55" width="166.84" height="65.01" style="fill:none"/><rect x="286.4" y="148.62" width="55.13" height="70.37" transform="translate(-89.75 9.73) rotate(-7.54)" style="fill:#fff"/><path d="M290,224l-9.64-72.74L338,143.62l9.63,72.73Zm-6.27-70.15,8.85,66.78,51.67-6.85L335.38,147Z" transform="translate(-68.34 -33.08)" style="fill:#231f20"/><path d="M308.19,170a39.64,39.64,0,0,1-10.43.38c-.6-.07-1.2-.18-1.93-.29l1-3.36c.43-1.38.91-2.76,1.29-4.16.17-.63.49-.79,1.16-.73a71.91,71.91,0,0,0,13.6-.31,65.06,65.06,0,0,0,13.46-3.38l.49-.15c-.1.58-.17,1.05-.25,1.53-.37,2-.76,4-1.09,6a1,1,0,0,1-.87.92q-5.69,1.5-11.35,3a1.36,1.36,0,0,0-.67.32c1.06.38,2.1.8,3.18,1.11s1.08.82.83,1.55a46.13,46.13,0,0,0-2.51,17.39c.25,4.58,1,9.13,1.57,13.68.12.85-.09,1.13-.95,1.45-3,1.14-6,2.38-8.94,3.59l-1.13.49C303.32,195.94,305.29,183,308.19,170Z" transform="translate(-68.34 -33.08)" style="fill:#010101"/><rect x="467.89" y="182.78" width="55.13" height="70.37" transform="translate(26.8 -179.45) rotate(18.56)" style="fill:#fff"/><path d="M511.33,262l-55.1-18.5,23.35-69.55,55.1,18.5ZM460,241.6l49.41,16.59,21.44-63.86-49.41-16.59Z" transform="translate(-68.34 -33.08)" style="fill:#231f20"/><path d="M523.23,201.16l-17.61,8.4s-6.79,1.88-4.9-6.36c1.41-6.18-5.91-4.41-7.5-3.32-2.71,1.86-6.61,9.24,2.09,12.19,9.68,3.28,13.81,10.78,9.34,20a5.73,5.73,0,0,1-2.85,3.11l-17.55,6.54a4.22,4.22,0,0,1-4.32-.87c-2.34-2.07-2.9-2.54-4.27-5.69-1.05-2.39-1.28-5.82-1.53-6.81-.4-1.59-2.17-2-3.68-1.87l9.26-4.52s3.16.16,5.06,10c.38,1.94,5.22,3.8,8.06,1.7,5.24-3.89,9-13.28-4.83-17-10.29-2.77-7.27-12.83-7.27-12.83s1.94-9.22,12.77-9.85c7.71-.46,12-.43,13.87-.37a4,4,0,0,1,2.47.93,4.46,4.46,0,0,1,1.58,4.74C510.41,203.24,523.23,201.16,523.23,201.16Z" transform="translate(-68.34 -33.08)" style="fill:#010101"/><rect x="82.47" y="169.2" width="55.13" height="70.37" transform="translate(-143.43 31.28) rotate(-24.6)" style="fill:#fff"/><path d="M98.88,249.83l-30.54-66.7,52.85-24.2,30.54,66.7ZM72.31,184.61l28.05,61.25,47.39-21.7-28-61.25Z" transform="translate(-68.34 -33.08)" style="fill:#231f20"/><path d="M105.11,190.59l3.37,8.91s2.52,7.35,3,8.65,2.56,9.89,5,9.56,7.64-3,8.12-4.24,1.79-3.73,1.36-5.83,2.33-7.29,5.09-1.73,1.65,12.87.87,13.67-5.59,1.92-8.92,3.73-13.8,5.36-16.78,7.36-5.47-.37-4.94-2.79,2.65-2.46.8-8.92-7.71-23.18-7.71-23.18a3.13,3.13,0,0,0-3.3-2.21c-2.51.32-3.4-4.13-2.14-4.79.69-.36,8.66-3.87,14-6.06,2.73-1.12,5.57,4.15,3.5,5.31C106.34,188,104.75,188.35,105.11,190.59Z" transform="translate(-68.34 -33.08)" style="fill:#010101"/><rect x="346.5" y="166.22" width="55.13" height="70.37" transform="translate(7.03 -133.78) rotate(17.03)" style="fill:#fff"/><path d="M391.12,245l-55.58-17L357,157.82l55.58,17Zm-51.84-19,49.85,15.26,19.72-64.41L359,161.57Z" transform="translate(-68.34 -33.08)" style="fill:#231f20"/><path d="M363.07,176.45l12.86,1.35s1.81,4.16.23,7.07l8.75-3s.6,8.63,12.54,7.9c0,0-7.61,12.16-22.85-.86,0,0-17.32,27.81-7.9,31.51l-12.52-.92s-10.17-3.21,9.45-36.11C363.63,183.38,366,176.94,363.07,176.45Z" transform="translate(-68.34 -33.08)" style="fill:#010101"/><rect x="411.11" y="153.15" width="55.13" height="70.37" transform="translate(-107.03 150.67) rotate(-22.69)" style="fill:#fff"/><path d="M426,233.39,397.72,165.7l53.63-22.42L479.64,211Zm-24.37-66.08,26,62.15,48.1-20.1-26-62.16Z" transform="translate(-68.34 -33.08)" style="fill:#231f20"/><path d="M455.58,198.2c-17.56,6.13-18.31-4.43-18.31-4.43s5.52-3.49,14.53-10.17-14.9-18.73-14.9-18.73l-19.6,7.07c6.06,1.4,7.21,26.27,8.37,30.61s19.12,8.55,19.12,8.55l13.81-10.71C459.17,198.6,455.58,198.2,455.58,198.2Zm-22.59-25s11.14,7.84,11,11.2-8.32,6.11-8.32,6.11Z" transform="translate(-68.34 -33.08)" style="fill:#010101"/><rect x="145.82" y="141.81" width="55.13" height="70.37" transform="translate(-54.24 -45.87) rotate(4.4)" style="fill:#fff"/><path d="M199.54,215.8l-57.95-4.46,5.63-73.15,57.95,4.46Zm-54.73-7.22,52,4L202,145.42l-52-4Z" transform="translate(-68.34 -33.08)" style="fill:#231f20"/><path d="M186.6,173.38c-1.14,1.84-2.16,3.51-3.19,5.16-.45.72-.77,1.74-1.44,2s-1.61-.25-2.43-.43a39.31,39.31,0,0,0-11.45-.78c-.56,0-.82.22-1,.7-.7,2.46-1.4,4.91-2.14,7.36a2.07,2.07,0,0,1-.67,1c-1.43,1.1-2.92,2.14-4.58,3.34,8-.48,15.87-1,23.68,1.21l-4,8c-8.85-2.67-17.84-2.83-27.06-1.87.14-.35.21-.61.33-.85.66-1.36,1.26-2.76,2-4.08a26.82,26.82,0,0,0,2.83-8.55,90,90,0,0,1,5.87-19.48,2.92,2.92,0,0,1,1.08-1.18c1.89-1.14,3.83-2.21,5.75-3.3l-.06-.24-8.36.67a5.68,5.68,0,0,1,.29-.64c1-1.74,2-3.48,3.1-5.19a1.91,1.91,0,0,1,1.07-.78,70,70,0,0,1,24.49-.91c1.2.16,2.37.49,3.66.77l-3.71,8c-2.13-.46-4.16-1-6.23-1.31-2.56-.35-5.15-.5-7.73-.69a1.22,1.22,0,0,0-.88.43,54.14,54.14,0,0,0-6.92,13.62,3.3,3.3,0,0,0,0,.52c1-.88,1.81-1.66,2.68-2.4a2,2,0,0,1,.91-.52A46.3,46.3,0,0,1,186.6,173.38Z" transform="translate(-68.34 -33.08)" style="fill:#010101"/><rect x="205.28" y="161.29" width="55.13" height="70.37" transform="matrix(0.96, 0.26, -0.26, 0.96, -8.66, -87.27)" style="fill:#fff"/><path d="M251.27,239.49l-56.09-15.25,19.24-70.79,56.09,15.24Zm-52.41-17.35,50.3,13.67,17.67-65-50.3-13.67Z" transform="translate(-68.34 -33.08)" style="fill:#231f20"/><path d="M229.55,182.53l-9.75,24s-2.49,2.94-5.41,2.69-2,6,4.15,7.27,13.81,6.25,16.11.17c0,0,.86-2.14-1.83-3.23s9.39-26.79,9.39-26.79,3.34-3.08,3.86,6.73c0,0,4,6.87,7.8-3,0,0,1.83-8.89-1.76-11.22s-9-2.51-12.6-3.72-7.65-3.71-10.88-4.25-13.8,9.5-10.78,13.51,7.62-3.41,9.75-3.52S229.55,182.53,229.55,182.53Z" transform="translate(-68.34 -33.08)" style="fill:#010101"/><rect x="278.2" y="38.39" width="61.25" height="78.17" transform="translate(-75.75 7.38) rotate(-7.41)" style="fill:#fff"/><path d="M282.2,121.86,271.74,41.37l63.71-8.29,10.46,80.5ZM275.1,44l9.69,74.54L342.55,111l-9.69-74.54Z" transform="translate(-68.34 -33.08)" style="fill:#231f20"/><polygon points="230.6 51.12 219.33 56.52 230.06 55.3 219.33 60.67 229.69 59.32 219.35 64.91 229.75 63.71 219.54 69.3 228.79 68.55 219.25 74.09 230.6 72.61 257.25 63.31 257.25 51.65 239.19 58.03 239.62 52.32 247.87 49.21 247.73 36.95 238.92 39.72 239.63 33.51 258.68 27.19 259.1 16.75 228.31 26.27 219.56 30.69 231.02 29.2 219.6 34.65 229.75 33.78 219.67 38.71 230.5 37.75 219.69 43.01 230.31 41.63 219.07 47.73 228.61 46.49 218.23 52.69 230.6 51.12" style="fill:#010101"/><rect x="342.54" y="51.13" width="61.25" height="78.17" transform="translate(-43.68 -103.89) rotate(11.21)" style="fill:#fff"/><path d="M396.78,136.28l-63-12.49,15.78-79.62,63,12.48Zm-59.5-14.85,57.14,11.32L409,59,351.9,47.69Z" transform="translate(-68.34 -33.08)" style="fill:#231f20"/><path d="M382.9,81.22l10.42-1.28S390,68.09,377.6,65.74c-10.13-1.92-16.87,2.71-18.85,7-2.46,5.33-8.14,16.23,14.72,24.2,5.43,1.89,7.71,9.33.36,11.37-3.88,1.07-13.82-1.12-13.17-9.23l-10.1.73s.55,12,14,15.62c14.68,4,28.16-4.28,24.55-19.2-1.72-7.14-9.34-8.34-18.7-13.51-1.94-1.07-5.1-7,1.56-8.77C375.89,72.89,381.39,74.9,382.9,81.22Z" transform="translate(-68.34 -33.08)" style="fill:#010101"/><rect x="307.88" y="276.36" width="64.26" height="82.02" transform="translate(50.57 -124.91) rotate(18.59)" style="fill:#fff"/><path d="M358.34,368.39,294.59,347l27.1-80.59,63.75,21.44Zm-59.95-23.33,58.06,19.53,25.19-74.9-58.06-19.53Z" transform="translate(-68.34 -33.08)" style="fill:#231f20"/><path d="M354.35,331.94c-.18-6.54-1.75-8.16-1.75-8.16l-11.44,5.31s1.92,8.45-4.79,10.69-8.05-11.83-3.87-17.17c0,0,15.36-6.35,20.75-7.44s-2.6-21,.11-25.49-18.64,1.53-21.1,3.75-32.83,45.7-6.09,52.71C326.17,346.14,354.53,338.48,354.35,331.94Zm-13.56-28.5c-1.51,3.72,1.92,10,1.2,11s-8.64,2.88-8.64,2.88C334.53,309.47,342.31,299.72,340.79,303.44Z" transform="translate(-68.34 -33.08)" style="fill:#010101"/><rect x="242.7" y="251.62" width="64.26" height="82.02" transform="translate(-107.52 9.42) rotate(-8.26)" style="fill:#fff"/><path d="M247.65,339.53l-12.21-84.14L302,245.73l12.21,84.14Zm-8.81-81.61,11.35,78.21,60.63-8.8-11.35-78.2Z" transform="translate(-68.34 -33.08)" style="fill:#231f20"/><path d="M265.81,319.75s42.79,4.72,35-34.11c-1.33-5.58-5.44-24.06-43.23-12.15l-11.51,5,12.27.2L246.61,284l14-.93L247.33,289l13.52-1.08L248,293.75l13.66-.88-13,5.36,13.67-.82-12.4,5,13.21-.93L250,307.69l13.15-1.36-12.55,5.46,13.29-.38L251.81,316l12.56-.06-10.82,4.44Zm7.22-9.14-5.3-31.1c21.19-6.92,22.61,10.34,22.61,10.34C294.23,311.88,273,310.61,273,310.61Z" transform="translate(-68.34 -33.08)" style="fill:#010101"/><rect x="140.08" y="347.26" width="61.85" height="78.95" transform="translate(-141.33 8.29) rotate(-11.39)" style="fill:#fff"/><path d="M147.31,433.31,131.13,353l63.58-12.81,16.18,80.34Zm-12.65-78,15,74.45,57.69-11.62-15-74.45Z" transform="translate(-68.34 -33.08)" style="fill:#231f20"/><path d="M155.3,364l9.5-4.84a61.61,61.61,0,0,1,.91,13.3l.49-1a54.7,54.7,0,0,1,6-10.75c.27-.36.55-.7.84-1,2.69-3.06,4.91-3.67,8.71-2.18,3.27,1.29,6.05,3.24,7.05,6.83a13.32,13.32,0,0,1-.61,8.69A19.35,19.35,0,0,1,184,379.4c-2.33,2.37-4.81,4.58-7.4,7,4,7.12,10,12.83,16.43,18.3l-6.72,7.8c-7.79-6.93-14.58-14.52-18.78-24.26.5-.35,1-.67,1.47-1a80.25,80.25,0,0,0,6.61-5.41c4-4,4.32-8.78,2.53-13.89a1.46,1.46,0,0,0-.54-.7c-.67-.41-1.38-.75-2.07-1.11l-.85-.39a24.56,24.56,0,0,0-5.69,9c-2,5.29-2.58,10.82-3,16.38-.52,6.63-1,13.26-1.61,19.88a18.35,18.35,0,0,1-.87,4.07c-.63,1.89-2.06,2.52-3.77,1.51a20.58,20.58,0,0,1-3.92-3.19c-2.9-2.82-3.46-6.08-2.13-10a111.66,111.66,0,0,0,3.44-12.47,42.23,42.23,0,0,0,.16-14c-.49-4.11-1.22-8.2-1.85-12.3C155.34,364.44,155.33,364.23,155.3,364Z" transform="translate(-68.34 -33.08)" style="fill:#010101"/><rect x="304.63" y="381.89" width="61.85" height="78.95" transform="translate(9.36 -84.64) rotate(9.93)" style="fill:#fff"/><path d="M360.43,467.32l-63.88-11.18,14.13-80.72,63.88,11.18ZM300,453.7l58,10.15L371.09,389l-58-10.15Z" transform="translate(-68.34 -33.08)" style="fill:#231f20"/><path d="M337.19,404.81l-2.75,10.82s1.17,2.46,4.39.93a15.82,15.82,0,0,0,2.73-4.77c1-2.8,5-1.35,4.65,1.32s-3.18,19.65-7.64,20,0-7.44-2.84-8.12-3.82-.6-4.27.93-4.19,11.23-1.64,12.54,9.34,2.27,10.64,1.39,4.23-2.39,5.23-4.7,7.13-5.43,6.05,1.77-7.06,13.47-8.35,13.72-6.67-1.92-11.07-2.43-16.86-4.12-21.07-4.2-5-4-2.87-6,4.2-.57,6.76-8,8.18-27.45,8.18-27.45.95-3-1.68-4.34-.5-6.26,1.16-6,26.13,4.54,28.57,4.57,4.09-.49,4.73,1.09a14.43,14.43,0,0,1,.43,10.37c-1.62,5.23-2.09,4.51-4.14,4.43s-.83-7.33-10.52-9.25C341.87,403.36,338.34,402.42,337.19,404.81Z" transform="translate(-68.34 -33.08)" style="fill:#010101"/><rect x="173.32" y="334.82" width="61.85" height="78.95" style="fill:#fff"/><path d="M305,448.36H240.15V366.41H305Zm-61.86-3H302V369.41H243.15Z" transform="translate(-68.34 -33.08)" style="fill:#231f20"/><path d="M251.64,384.65l12-3.42s5.73.56,3.78,8.92-8.25,35-1.09,34,9.35-2.32,9.35-2.32,9.66-30,2.75-36.27c0,0,9.52-4.34,10.78-3.88s7,2.27,6.6,4.3-9.74,42.53-3,43.06l-13.53,3.47s-3.47-4-3-6.5c0,0-16.64,6.09-18.89,6s-11.24-4.05-7.05-24.37S255,387.28,251.64,384.65Z" transform="translate(-68.34 -33.08)" style="fill:#010101"/><rect x="234.33" y="470.97" width="64.26" height="82.02" transform="translate(38.08 -75.64) rotate(11.4)" style="fill:#fff"/><path d="M291,560.3,225.1,547l16.8-83.34L307.83,477Zm-62.4-15.64,60.05,12.11L304.3,479.3l-60.06-12.1Z" transform="translate(-68.34 -33.08)" style="fill:#231f20"/><path d="M265.65,478.22s-7.64-2.91-8.24-1.66-7.26,2,1.1,14.11c0,0-14.3,38.62-15.16,40.34s-4.88,1.24-2.08,4.38,4,3,4,4.06-1.42,3.66,3.82,2.31,35.13-12.64,38.55-27S293.29,490.82,265.65,478.22Zm-13,48.15c4.06-4,18.09-35.8,18.09-35.8a40.54,40.54,0,0,1,9.05,4.91C284.13,509.9,252.69,526.37,252.69,526.37Z" transform="translate(-68.34 -33.08)" style="fill:#010101"/><rect x="307.88" y="491.02" width="64.26" height="82.02" transform="translate(-155.52 34.01) rotate(-10)" style="fill:#fff"/><path d="M314.27,579.73,299.52,496l66.24-11.67,14.75,83.73ZM303,498.43l13.72,77.83L377,565.63,363.32,487.8Z" transform="translate(-68.34 -33.08)" style="fill:#231f20"/><path d="M358.39,534.82s-2.14,12.8-22.24,8.69c0,0,.17-9,5.34-12.17s20.76-15.4,15.72-24.89-35.94-.81-37.3,10.66-5.22,27.8,6.78,38.44,16.18,2.76,21.53,2.33,5.42,1.6,9.4-.81S371.38,542.74,358.39,534.82Zm-31.76-7.92c-1.17-9.92,5.27-18.37,14.76-17s6.33,11.81-.66,14.58-9.51,16-9.51,16S327.79,536.81,326.63,526.9Z" transform="translate(-68.34 -33.08)" style="fill:#010101"/><rect x="79.07" y="517.19" width="64.26" height="82.02" style="fill:#fff"/><path d="M213.17,633.8H145.91v-85h67.26Zm-64.26-3h61.26v-79H148.91Z" transform="translate(-68.34 -33.08)" style="fill:#231f20"/><path d="M190.87,581.82h11.67s1.22-20.28-19.06-19.16c-26.7,1.48-37.74,52.7-13.62,56.75,0,0,22.56,5.16,27.62-16.21l-11.67-.37s-2.72,10.32-14,8.11-4.75-41.08,11.68-40.54C194.76,570.77,190.87,581.82,190.87,581.82Z" transform="translate(-68.34 -33.08)" style="fill:#010101"/><rect x="322.88" y="706.2" width="64.26" height="82.02" transform="translate(-309.13 140.21) rotate(-20.66)" style="fill:#fff"/><path d="M338.54,798.86l-30-79.56,62.94-23.73,30,79.56Zm-26.13-77.81L340.29,795l57.32-21.61-27.88-73.94Z" transform="translate(-68.34 -33.08)" style="fill:#231f20"/><path d="M326,735.25l4.8.74,5.26,13.9-2.67,3.85,4.19,1L344,771.5l-3.07,3.68,1.46,4.06L359.24,773l-1.15-3.65-4.54-1L345.84,745l25.71,22.91,12.6-4.77-1.35-4.29s-4.49.31-4.91-.46-5.13-16.86-5.13-16.86l2.56-3.61-4-.86s-5.32-11.87-5-13.68,2.82-3.9,2.82-3.9l-1.35-4.29-16.52,5.71,1.11,4.66,4.89,1,8.26,24L338.34,725.7l-13.81,4.75Z" transform="translate(-68.34 -33.08)" style="fill:#010101"/><rect x="234.74" y="581.33" width="64.26" height="82.02" transform="translate(-155.66 12.13) rotate(-8.33)" style="fill:#fff"/><path d="M239.75,669.28l-12.32-84.13L294,575.41l12.32,84.13Zm-8.91-81.59,11.44,78.19L302.9,657l-11.45-78.19Z" transform="translate(-68.34 -33.08)" style="fill:#231f20"/><path d="M254.27,592.54s-12.86,57-.88,62.64,8.81-12.76,12.25-20.22c0,0,4.28,13.78,12.22,11.64s11.41-10.57,11.43-18.18c0,0-1.37-2.71-4.15-.69s-3.09,12.11-7.55,12.6.13-15.72,2.49-20.6-8.32-9.3-9.38-8.82-13.32,27.36-13.76,31,7-39.4,9.14-43.75S256.35,589,254.27,592.54Z" transform="translate(-68.34 -33.08)" style="fill:#010101"/><rect x="411.83" y="570.91" width="64.26" height="82.02" transform="translate(-245.2 147.41) rotate(-19.24)" style="fill:#fff"/><path d="M426.22,663.15l-28-80.28,63.5-22.16,28,80.27ZM402,584.72l26,74.61,57.84-20.19-26-74.61Z" transform="translate(-68.34 -33.08)" style="fill:#231f20"/><path d="M413.49,589.23s9.87,31.5,12.73,36.47,8.16,15.34,25.29,9.65S467.75,617.46,466.4,612s-11.82-37.08-11.82-37.08l-11.28,3.94s11.15,31.92,11.37,35,1.36,7.77-6.18,10.4-10.89-1.31-12.32-6.21-11.66-32.59-11.66-32.59Z" transform="translate(-68.34 -33.08)" style="fill:#010101"/><rect x="303.96" y="594.03" width="64.26" height="82.02" transform="translate(106 -98.09) rotate(14.88)" style="fill:#fff"/><path d="M357.68,684.76l-65-17.27,21.84-82.17,65,17.27Zm-61.34-19.4,59.21,15.73,20.29-76.37L316.63,589Z" transform="translate(-68.34 -33.08)" style="fill:#231f20"/><polygon points="250.03 600.86 259.54 603.38 272.47 583.84 275.13 607.53 283.12 609.65 280.36 573.3 270.85 570.77 250.03 600.86" style="fill:#010101"/><polygon points="245.96 606.97 284.38 617.18 285.63 634.71 278.02 632.68 276.54 623.69 249.34 616.47 243.97 623.64 235.98 621.52 245.96 606.97" style="fill:#010101"/><rect x="248.33" y="697.57" width="64.26" height="82.02" transform="translate(-1.22 -55.19) rotate(5.13)" style="fill:#fff"/><path d="M310.16,783.93l-67-6,7.59-84.68,67,6Zm-63.74-8.73,61,5.47L314.5,702l-61-5.48Z" transform="translate(-68.34 -33.08)" style="fill:#231f20"/><path d="M296.66,720.79l-29-2.6a10.36,10.36,0,0,0-11.24,9.39l-1.36,15.2A10.35,10.35,0,0,0,264.47,754l29,2.6a10.35,10.35,0,0,0,11.24-9.39L306.05,732A10.36,10.36,0,0,0,296.66,720.79Zm-2.94,22a5.64,5.64,0,0,1-6.13,5.12l-15.81-1.42a5.65,5.65,0,0,1-5.12-6.13l.75-8.29a5.64,5.64,0,0,1,6.13-5.12l15.8,1.42a5.65,5.65,0,0,1,5.13,6.13Z" transform="translate(-68.34 -33.08)" style="fill:#010101"/><rect x="163.81" y="697.63" width="64.26" height="82.02" transform="translate(-282.4 60.67) rotate(-17.59)" style="fill:#fff"/><path d="M176.73,789.33,151,708.28,215.15,688l25.69,81ZM154.8,710.24l23.88,75.33,58.4-18.52-23.89-75.33Z" transform="translate(-68.34 -33.08)" style="fill:#231f20"/><polygon points="104.39 693.97 123.08 683.13 131.23 700.47 131.37 679.16 139.14 674.77 159 714.15 151.58 717.75 139.16 701.4 140.02 722.32 131.48 726.9 123.95 709.81 123.61 730.35 106.14 737.02 115.15 729.01 105.47 731.85 114.81 725.12 105.41 727.47 114.89 721.26 106.23 723.82 114.35 717.15 105.81 719.13 114.84 712.76 105.57 715.07 114.56 708.58 104.16 710.77 114.31 703.98 104.28 707.59 113.97 700.09 105.51 702.87 114.53 695.96 104.07 698.99 112.96 692.12 104.39 693.97" style="fill:#010101"/><rect x="402.94" y="716.77" width="64.26" height="82.02" transform="matrix(0.95, 0.32, -0.32, 0.95, 196.22, -132.3)" style="fill:#fff"/><path d="M453.38,808.81l-63.75-21.47,27.13-80.58,63.75,21.47Zm-59.95-23.35L451.49,805l25.22-74.89-58.06-19.55Z" transform="translate(-68.34 -33.08)" style="fill:#231f20"/><path d="M430.35,737.67l11.55-7.1,4.61,1.55L443.19,742l9.21,3.1-1.55,4.61-8.89-3s-12.93,27.52-9.87,31.49a11,11,0,0,0,7.79,4.08s-12.66,10.4-22.17-7.09L429,741.62,424.08,740l1.22-3.62Z" transform="translate(-68.34 -33.08)" style="fill:#010101"/><rect x="136.66" y="12.8" width="70.78" height="84.8" style="fill:none"/><rect x="212.35" y="51.61" width="56.07" height="73.34" transform="translate(-49.39 -73.43) rotate(9.99)" style="fill:#fff"/><path d="M275.78,56,218.14,45.88,205,120.53l57.64,10.15Zm-55.65-7.3L272.93,58l-12.29,69.81-52.8-9.3Z" transform="translate(-68.34 -33.08)" style="fill:#231f20"/><polygon points="160.81 30.16 173.47 32.38 167.26 67.67 184.93 70.97 182.94 82.27 152.57 76.92 160.81 30.16" style="fill:#010101"/><rect x="311.22" y="327.51" width="86.05" height="97.38" style="fill:none"/><rect x="391.66" y="369.81" width="61.85" height="78.95" transform="translate(70.44 -139.11) rotate(17.07)" style="fill:#fff"/><path d="M441.55,458l-62-19,24.06-78.34,62,19Zm-58.24-21,56.26,17.28,22.29-72.61L405.6,364.35Z" transform="translate(-68.34 -33.08)" style="fill:#231f20"/><path d="M433.11,418.69c-.66,2.87-2,5.16-7.48,5.38-4.1.16-12.75-2.8-11.25-10.93L404,412.81S403.37,425,416.7,430.1c14.51,5.57,29-1.35,26.91-16.83-1-7.4-8.64-9.43-17.62-15.65-1.86-1.28-4.47-7.57,2.48-8.7,4-.66,9.43,1.95,10.32,8.5l10.71-.19s-2.15-12.33-14.51-16c-10.09-3-17.42,1-19.86,5.08L403.35,386,414,389.57l-10.14.71,11.53,3.54-13,1.68,12.69,2.05-13.6,2.71,15.93,1.32-14.77,3.05,18.25.93-11.74,3.2,17,1.55-7.32,2.15,12.62,1.89-7.8,2.7Z" transform="translate(-68.34 -33.08)" style="fill:#010101"/></svg>