<svg id="Слой_1" data-name="Слой 1" xmlns="http://www.w3.org/2000/svg" width="164.5mm" height="273.8mm" viewBox="0 0 466.3 776.1">
  <title>29_03</title>
  <rect x="150.8" y="55" width="166.8" height="65.01" style="fill: none"/>
  <rect x="218.1" y="115.6" width="55.1" height="70.37" transform="translate(-17.7 33.5) rotate(-7.5)" style="fill: #fff"/>
  <path d="M221.7,190.9,212,118.2l57.7-7.7,9.6,72.8Zm-6.3-70.1,8.8,66.7,51.7-6.8L267,113.9Z" transform="translate(0 0)" style="fill: #231f20"/>
  <path d="M239.9,136.9a41.1,41.1,0,0,1-10.5.4l-1.9-.3,1-3.3c.4-1.4.9-2.8,1.3-4.2s.5-.8,1.1-.7a77.1,77.1,0,0,0,13.6-.3,70.3,70.3,0,0,0,13.5-3.4l.5-.2-.3,1.6c-.3,2-.7,4-1,6a1.2,1.2,0,0,1-.9.9l-11.4,3a.7.7,0,0,0-.6.3l3.1,1.1c1.1.3,1.1.8.9,1.6a44.1,44.1,0,0,0-2.5,17.3c.2,4.6,1,9.2,1.5,13.7.1.9-.1,1.2-.9,1.5l-9,3.6-1.1.5C235,162.9,237,149.9,239.9,136.9Z" transform="translate(0 0)" style="fill: #010101"/>
  <rect x="391.9" y="157.3" width="70.4" height="55.13" transform="translate(115.9 530.9) rotate(-71.4)" style="fill: #fff"/>
  <path d="M443,228.9l-55.1-18.5,23.3-69.5,55.1,18.5Zm-51.3-20.4,49.4,16.6,21.4-63.9-49.4-16.5Z" transform="translate(0 0)" style="fill: #231f20"/>
  <path d="M454.9,168.1l-17.6,8.4s-6.8,1.9-4.9-6.4c1.4-6.2-5.9-4.4-7.5-3.3S418.3,176,427,179s13.8,10.8,9.3,20a5.4,5.4,0,0,1-2.8,3.1l-17.6,6.5a4.2,4.2,0,0,1-4.3-.8,12.4,12.4,0,0,1-4.3-5.7,32.9,32.9,0,0,1-1.5-6.8c-.4-1.6-2.2-2-3.7-1.9l9.3-4.5s3.1.1,5,10c.4,1.9,5.3,3.8,8.1,1.7,5.2-3.9,9-13.3-4.8-17-10.3-2.8-7.3-12.9-7.3-12.9s1.9-9.2,12.8-9.8c7.7-.5,12-.4,13.8-.4a4.6,4.6,0,0,1,2.5,1,4.4,4.4,0,0,1,1.6,4.7C442.1,170.2,454.9,168.1,454.9,168.1Z" transform="translate(0 0)" style="fill: #010101"/>
  <rect x="14.1" y="136.1" width="55.1" height="70.37" transform="translate(-67.5 32.9) rotate(-24.6)" style="fill: #fff"/>
  <path d="M30.5,216.7,0,150l52.8-24.2,30.6,66.7ZM4,151.5l28,61.3,47.4-21.7-28-61.3Z" transform="translate(0 0)" style="fill: #231f20"/>
  <path d="M36.8,157.5l3.3,8.9s2.6,7.4,3,8.7,2.6,9.9,5,9.5,7.7-3,8.2-4.2,1.8-3.7,1.3-5.8,2.4-7.3,5.1-1.8,1.7,12.9.9,13.7-5.6,1.9-8.9,3.7-13.8,5.4-16.8,7.4-5.5-.4-5-2.8,2.7-2.5.8-8.9S26,162.7,26,162.7a3.1,3.1,0,0,0-3.3-2.2c-2.5.3-3.4-4.1-2.1-4.8s8.6-3.9,14-6.1c2.7-1.1,5.6,4.2,3.5,5.3C38,154.9,36.4,155.3,36.8,157.5Z" transform="translate(0 0)" style="fill: #010101"/>
  <rect x="270.5" y="140.8" width="70.4" height="55.13" transform="translate(55.2 411.3) rotate(-73)" style="fill: #fff"/>
  <path d="M322.8,211.9l-55.6-17,21.5-70.2,55.5,17Zm-2-3.7,19.7-64.4-49.8-15.3-19.8,64.4" transform="translate(0 0)" style="fill: #231f20"/>
  <path d="M294.7,143.4l12.9,1.3s1.8,4.2.2,7.1l8.8-3s.6,8.6,12.5,7.9c0,0-7.6,12.1-22.8-.9,0,0-17.4,27.8-7.9,31.5l-12.6-.9s-10.1-3.2,9.5-36.1C295.3,150.3,297.7,143.9,294.7,143.4Z" transform="translate(0 0)" style="fill: #010101"/>
  <rect x="342.8" y="120" width="55.1" height="70.37" transform="translate(-31.2 154.9) rotate(-22.7)" style="fill: #fff"/>
  <path d="M357.7,200.3l-28.3-67.7L383,110.2l28.3,67.7Zm-24.4-66.1,26,62.2,48.1-20.1-26-62.2Z" transform="translate(0 0)" style="fill: #231f20"/>
  <path d="M387.2,165.1c-17.5,6.1-18.3-4.4-18.3-4.4s5.5-3.5,14.6-10.2-14.9-18.7-14.9-18.7L349,138.9c6,1.4,7.2,26.2,8.3,30.6s19.1,8.5,19.1,8.5l13.9-10.7C390.8,165.5,387.2,165.1,387.2,165.1Zm-22.6-25s11.2,7.9,11,11.2-8.3,6.1-8.3,6.1Z" transform="translate(0 0)" style="fill: #010101"/>
  <rect x="69.9" y="116.3" width="70.4" height="55.13" transform="translate(-46.5 237.6) rotate(-85.6)" style="fill: #fff"/>
  <path d="M131.2,182.7l-58-4.4,5.7-73.2,57.9,4.5Zm-54.7-7.2,52,4,5.2-67.2-52-4Z" transform="translate(0 0)" style="fill: #231f20"/>
  <path d="M118.3,140.3c-1.2,1.8-2.2,3.5-3.2,5.2s-.8,1.7-1.5,2-1.6-.3-2.4-.5a36.5,36.5,0,0,0-11.4-.7c-.6,0-.9.2-1,.7-.7,2.4-1.4,4.9-2.2,7.3a1.4,1.4,0,0,1-.7,1l-4.5,3.4c8-.5,15.8-1,23.6,1.2l-4,8c-8.8-2.7-17.8-2.9-27-1.9a9.4,9.4,0,0,1,.3-.9c.7-1.3,1.3-2.7,2-4a26.3,26.3,0,0,0,2.8-8.6A95.3,95.3,0,0,1,95,133a2.3,2.3,0,0,1,1.1-1.1q2.9-1.8,5.7-3.3v-.3l-8.4.7.3-.7c1-1.7,2-3.4,3.1-5.1a1.8,1.8,0,0,1,1.1-.8,67.2,67.2,0,0,1,24.5-.9c1.2.1,2.3.5,3.6.7l-3.7,8c-2.1-.4-4.1-1-6.2-1.3l-7.7-.7a1.1,1.1,0,0,0-.9.5,49.8,49.8,0,0,0-6.9,13.6.5.5,0,0,0,0,.5l2.6-2.4a1.9,1.9,0,0,1,1-.5A44.6,44.6,0,0,1,118.3,140.3Z" transform="translate(0 0)" style="fill: #010101"/>
  <rect x="128.8" y="134.5" width="70" height="54.83" transform="translate(-35.3 277.7) rotate(-74.8)" style="fill: #fff"/>
  <path d="M182.9,206.4l-56.1-15.2,19.3-70.8,56.1,15.2Zm-52.4-17.3,50.3,13.6,17.7-65-50.3-13.6Z" transform="translate(0 0)" style="fill: #231f20"/>
  <path d="M161.2,149.4l-9.7,24s-2.5,3-5.4,2.7-2,6,4.1,7.3,13.8,6.3,16.1.2c0,0,.9-2.2-1.8-3.3s9.4-26.7,9.4-26.7,3.3-3.1,3.8,6.7c0,0,4,6.9,7.8-3,0,0,1.9-8.9-1.7-11.2s-9-2.5-12.6-3.8-7.7-3.7-10.9-4.2-13.8,9.5-10.8,13.5,7.6-3.4,9.8-3.5S161.2,149.4,161.2,149.4Z" transform="translate(0 0)" style="fill: #010101"/>
  <rect x="209.9" y="5.3" width="61.3" height="78.17" transform="translate(-3.7 31.4) rotate(-7.4)" style="fill: #fff"/>
  <path d="M213.9,88.8,203.4,8.3,267.1,0l10.5,80.5Zm-7.1-77.9,9.7,74.6,57.7-7.6L264.5,3.4Z" transform="translate(0 0)" style="fill: #231f20"/>
  <polygon points="230.6 51.1 219.3 56.5 230.1 55.3 219.3 60.7 229.7 59.3 219.3 64.9 229.8 63.7 219.5 69.3 228.8 68.5 219.3 74.1 230.6 72.6 257.3 63.3 257.3 51.6 239.2 58 239.6 52.3 247.9 49.2 247.7 37 238.9 39.7 239.6 33.5 258.7 27.2 259.1 16.8 228.3 26.3 219.6 30.7 231 29.2 219.6 34.6 229.8 33.8 219.7 38.7 230.5 37.8 219.7 43 230.3 41.6 219.1 47.7 228.6 46.5 218.2 52.7 230.6 51.1" style="fill: #010101"/>
  <rect x="265.7" y="26.5" width="78.2" height="61.25" transform="matrix(0.19, -0.98, 0.98, 0.19, 189.51, 345.05)" style="fill: #fff"/>
  <path d="M328.4,103.2l-63-12.5,15.8-79.6,63,12.5ZM268.9,88.3l57.2,11.4,14.6-73.8L283.6,14.6Z" transform="translate(0 0)" style="fill: #231f20"/>
  <path d="M314.6,48.1,325,46.9S321.7,35,309.3,32.7c-10.2-2-16.9,2.7-18.9,7s-8.1,16.2,14.7,24.2c5.5,1.8,7.7,9.3.4,11.3-3.9,1.1-13.8-1.1-13.2-9.2l-10.1.7s.6,12,14,15.6,28.2-4.2,24.6-19.1c-1.8-7.2-9.4-8.4-18.7-13.6-2-1-5.1-7,1.5-8.7C307.6,39.8,313.1,41.8,314.6,48.1Z" transform="translate(0 0)" style="fill: #010101"/>
  <rect x="230.7" y="252.2" width="82" height="64.26" transform="translate(-84.4 451.2) rotate(-71.4)" style="fill: #fff"/>
  <path d="M290,335.3l-63.8-21.4,27.2-80.6,63.7,21.5ZM230,312l58.1,19.5,25.2-74.9-58.1-19.5Z" transform="translate(0 0)" style="fill: #231f20"/>
  <path d="M286,298.9c-.2-6.6-1.7-8.2-1.7-8.2L272.8,296s1.9,8.5-4.8,10.7-8-11.8-3.8-17.2c0,0,15.3-6.3,20.7-7.4s-2.6-21,.1-25.5-18.6,1.5-21.1,3.7-32.8,45.7-6.1,52.8C257.8,313.1,286.2,305.4,286,298.9Zm-13.5-28.5c-1.6,3.7,1.9,10,1.2,11s-8.7,2.8-8.7,2.8C266.2,276.4,274,266.6,272.5,270.4Z" transform="translate(0 0)" style="fill: #010101"/>
  <rect x="174.4" y="218.5" width="64.3" height="82.02" transform="translate(-35.1 32.4) rotate(-8.3)" style="fill: #fff"/>
  <path d="M179.3,306.4l-12.2-84.1,66.6-9.7,12.2,84.2Zm-8.8-81.6L181.9,303l60.6-8.8L231.1,216Z" transform="translate(0 0)" style="fill: #231f20"/>
  <path d="M197.5,286.7s42.8,4.7,35-34.1c-1.4-5.6-5.5-24.1-43.3-12.2l-11.5,5,12.3.2-11.7,5.3,14-.9L179,255.9l13.5-1.1-12.8,5.9,13.6-.9-13,5.3,13.7-.8-12.4,5,13.2-.9-13.1,6.2,13.1-1.3-12.5,5.4,13.2-.4-12,4.6H196l-10.8,4.4Zm7.2-9.2-5.3-31.1c21.2-6.9,22.6,10.4,22.6,10.4,3.9,22-17.3,20.7-17.3,20.7Z" transform="translate(0 0)" style="fill: #010101"/>
  <rect x="71.8" y="314.2" width="61.8" height="78.95" transform="translate(-67.8 27.2) rotate(-11.4)" style="fill: #fff"/>
  <path d="M79,400.2,62.8,319.9l63.6-12.8,16.2,80.3Zm-12.7-78,15,74.5L139,385.1l-15-74.5Z" transform="translate(0 0)" style="fill: #231f20"/>
  <path d="M87,330.9l9.5-4.8a73.7,73.7,0,0,1,.9,13.3l.5-1a52,52,0,0,1,6-10.8l.8-1c2.7-3,4.9-3.6,8.7-2.2s6.1,3.3,7.1,6.9a14.4,14.4,0,0,1-.6,8.7,20.4,20.4,0,0,1-4.2,6.3c-2.4,2.4-4.8,4.6-7.4,7,4,7.1,10,12.8,16.4,18.3l-6.7,7.8c-7.8-6.9-14.6-14.5-18.8-24.2l1.5-1a68.7,68.7,0,0,0,6.6-5.5c4-4,4.3-8.7,2.5-13.8a1.3,1.3,0,0,0-.5-.7,22.5,22.5,0,0,0-2.1-1.2l-.9-.3a25.6,25.6,0,0,0-5.7,9c-2,5.2-2.5,10.8-3,16.3s-1,13.3-1.6,19.9a18.6,18.6,0,0,1-.8,4.1c-.7,1.9-2.1,2.5-3.8,1.5a23.7,23.7,0,0,1-3.9-3.2c-2.9-2.8-3.5-6.1-2.2-10a105,105,0,0,0,3.5-12.5,41.1,41.1,0,0,0,.1-14c-.4-4.1-1.2-8.2-1.8-12.3C87,331.4,87,331.2,87,330.9Z" transform="translate(0 0)" style="fill: #010101"/>
  <rect x="227.8" y="357.4" width="79" height="61.85" transform="translate(-161.3 584.5) rotate(-80.1)" style="fill: #fff"/>
  <path d="M292.1,434.2l-63.9-11.1,14.1-80.8,63.9,11.2Zm-60.4-13.6,58,10.2,13.1-74.9-58-10.1Z" transform="translate(0 0)" style="fill: #231f20"/>
  <path d="M268.9,371.7l-2.8,10.8s1.2,2.5,4.4,1a15.2,15.2,0,0,0,2.7-4.8c1-2.8,5-1.3,4.7,1.3s-3.2,19.7-7.7,20,0-7.4-2.8-8.1-3.8-.6-4.3.9-4.2,11.3-1.6,12.6,9.3,2.3,10.6,1.4,4.3-2.4,5.3-4.7,7.1-5.5,6,1.7-7.1,13.5-8.3,13.8-6.7-2-11.1-2.5-16.9-4.1-21.1-4.2-5-4-2.9-6,4.2-.5,6.8-8,8.2-27.4,8.2-27.4.9-3-1.7-4.4-.5-6.2,1.2-6,26.1,4.6,28.5,4.6,4.1-.5,4.8,1.1a14.9,14.9,0,0,1,.4,10.4c-1.6,5.2-2.1,4.5-4.1,4.4s-.9-7.3-10.6-9.3C273.5,370.3,270,369.3,268.9,371.7Z" transform="translate(0 0)" style="fill: #010101"/>
  <rect x="173.3" y="334.8" width="61.9" height="78.95" style="fill: #fff"/>
  <path d="M236.7,415.3H171.8v-82h64.9Zm-61.9-3h58.9v-76H174.8Z" transform="translate(0 0)" style="fill: #231f20"/>
  <path d="M183.3,351.6l12-3.5s5.7.6,3.8,9-8.3,35-1.1,34,9.3-2.4,9.3-2.4,9.7-30,2.8-36.2c0,0,9.5-4.4,10.8-3.9s7,2.3,6.6,4.3-9.8,42.5-3,43.1l-13.6,3.4s-3.4-4-3-6.5c0,0-16.6,6.1-18.8,6s-11.3-4-7.1-24.3S186.7,354.2,183.3,351.6Z" transform="translate(0 0)" style="fill: #010101"/>
  <rect x="157.1" y="446.8" width="82" height="64.26" transform="translate(-310.5 578.4) rotate(-78.6)" style="fill: #fff"/>
  <path d="M222.7,527.2l-65.9-13.3,16.8-83.3,65.9,13.3Zm-62.4-15.6,60,12.1L236,446.2l-60.1-12.1Z" transform="translate(0 0)" style="fill: #231f20"/>
  <path d="M197.3,445.1s-7.6-2.9-8.2-1.6-7.3,2,1.1,14.1c0,0-14.3,38.6-15.2,40.3s-4.9,1.3-2.1,4.4,4,3,4,4.1-1.4,3.6,3.9,2.3,35.1-12.7,38.5-27S225,457.7,197.3,445.1Zm-13,48.2c4.1-4,18.1-35.8,18.1-35.8a37.3,37.3,0,0,1,9,4.9c4.4,14.4-27,30.9-27,30.9Z" transform="translate(0 0)" style="fill: #010101"/>
  <rect x="239.6" y="457.9" width="64.3" height="82.02" transform="translate(-82.5 54.8) rotate(-10)" style="fill: #fff"/>
  <path d="M245.9,546.6l-14.7-83.7,66.2-11.7L312.2,535Zm-11.2-81.3,13.7,77.9,60.3-10.7L295,454.7Z" transform="translate(0 0)" style="fill: #231f20"/>
  <path d="M290.1,501.7s-2.2,12.8-22.3,8.7c0,0,.2-9,5.4-12.1s20.7-15.4,15.7-24.9-36-.8-37.3,10.6-5.2,27.8,6.8,38.5,16.1,2.7,21.5,2.3,5.4,1.6,9.4-.8S303,509.7,290.1,501.7Zm-31.8-7.9c-1.2-9.9,5.3-18.3,14.8-17s6.3,11.8-.7,14.6-9.5,16-9.5,16S259.5,503.7,258.3,493.8Z" transform="translate(0 0)" style="fill: #010101"/>
  <rect x="79.1" y="517.2" width="64.3" height="82.02" style="fill: #fff"/>
  <path d="M144.8,600.7H77.6v-85h67.2Zm-64.2-3h61.2v-79H80.6Z" transform="translate(0 0)" style="fill: #231f20"/>
  <path d="M122.5,548.7h11.7s1.2-20.2-19.1-19.1c-26.7,1.5-37.7,52.7-13.6,56.7,0,0,22.6,5.2,27.6-16.2l-11.6-.3s-2.7,10.3-14,8.1-4.8-41.1,11.6-40.6C126.4,537.7,122.5,548.7,122.5,548.7Z" transform="translate(0 0)" style="fill: #010101"/>
  <rect x="254.6" y="673.1" width="64.3" height="82.02" transform="translate(-233.5 147.1) rotate(-20.7)" style="fill: #fff"/>
  <path d="M270.2,765.8l-30-79.6,62.9-23.7,30,79.5ZM244.1,688,272,761.9l57.3-21.6-27.9-73.9Z" transform="translate(0 0)" style="fill: #231f20"/>
  <path d="M257.7,702.2l4.8.7,5.2,13.9-2.7,3.9,4.2,1,6.5,16.7-3.1,3.7,1.4,4.1,16.9-6.3-1.1-3.6-4.6-1-7.7-23.4,25.7,22.9,12.6-4.7-1.3-4.3s-4.5.3-5-.5-5.1-16.9-5.1-16.9l2.6-3.6-4-.8s-5.3-11.9-5-13.7,2.8-3.9,2.8-3.9l-1.4-4.3-16.5,5.7,1.1,4.7,4.9,1,8.3,24L270,692.6l-13.8,4.8Z" transform="translate(0 0)" style="fill: #010101"/>
  <rect x="166.4" y="548.2" width="64.3" height="82.02" transform="matrix(0.99, -0.14, 0.14, 0.99, -83.27, 34.98)" style="fill: #fff"/>
  <path d="M171.4,636.2l-12.3-84.1,66.6-9.8L238,626.5Zm-8.9-81.6,11.4,78.2,60.7-8.9-11.5-78.2Z" transform="translate(0 0)" style="fill: #231f20"/>
  <path d="M185.9,559.5s-12.8,57-.8,62.6,8.8-12.8,12.2-20.2c0,0,4.3,13.8,12.2,11.6S220.9,603,221,595.3c0,0-1.4-2.7-4.2-.6s-3.1,12.1-7.5,12.6.1-15.8,2.4-20.6-8.3-9.3-9.3-8.9-13.4,27.4-13.8,31,7-39.4,9.1-43.7S188,555.9,185.9,559.5Z" transform="translate(0 0)" style="fill: #010101"/>
  <rect x="343.5" y="537.8" width="64.3" height="82.02" transform="translate(-169.8 156.1) rotate(-19.2)" style="fill: #fff"/>
  <path d="M357.9,630.1l-28-80.3,63.5-22.2,28,80.3Zm-24.2-78.5,26,74.6,57.8-20.1-26-74.7Z" transform="translate(0 0)" style="fill: #231f20"/>
  <path d="M345.1,556.1s9.9,31.5,12.8,36.5,8.1,15.4,25.3,9.7,16.2-17.9,14.9-23.4-11.9-37.1-11.9-37.1l-11.2,4s11.1,31.9,11.3,35,1.4,7.7-6.2,10.4-10.8-1.3-12.3-6.2-11.6-32.6-11.6-32.6Z" transform="translate(0 0)" style="fill: #010101"/>
  <rect x="226.7" y="569.8" width="82" height="64.26" transform="matrix(0.26, -0.97, 0.97, 0.26, -382.79, 706.15)" style="fill: #fff"/>
  <path d="M289.3,651.7l-65-17.3,21.9-82.2,65,17.3ZM228,632.3,287.2,648l20.3-76.4-59.2-15.7Z" transform="translate(0 0)" style="fill: #231f20"/>
  <polygon points="250 600.9 259.5 603.4 272.5 583.8 275.1 607.5 283.1 609.6 280.4 573.3 270.9 570.8 250 600.9" style="fill: #010101"/>
  <polygon points="246 607 284.4 617.2 285.6 634.7 278 632.7 276.5 623.7 249.3 616.5 244 623.6 236 621.5 246 607" style="fill: #010101"/>
  <rect x="171.1" y="673.4" width="82" height="64.26" transform="translate(-509.6 853.7) rotate(-84.9)" style="fill: #fff"/>
  <path d="M241.8,750.8l-67-6,7.6-84.6,67,6Zm-63.7-8.7,61,5.5,7.1-78.7-61-5.5Z" transform="translate(0 0)" style="fill: #231f20"/>
  <path d="M228.3,687.7l-29-2.6a10.3,10.3,0,0,0-11.2,9.4l-1.4,15.2a10.3,10.3,0,0,0,9.4,11.2h0l29,2.6a10.4,10.4,0,0,0,11.3-9.4h0l1.3-15.2A10.3,10.3,0,0,0,228.3,687.7Zm-2.9,22a5.6,5.6,0,0,1-6.1,5.1h-.1l-15.8-1.4a5.6,5.6,0,0,1-5.1-6.1l.8-8.3a5.6,5.6,0,0,1,6.1-5.1h0l15.8,1.4a5.6,5.6,0,0,1,5.1,6.1h0Z" transform="translate(0 0)" style="fill: #010101"/>
  <rect x="95.5" y="664.5" width="64.3" height="82.02" transform="translate(-207.3 71.6) rotate(-17.6)" style="fill: #fff"/>
  <path d="M108.4,756.3,82.7,675.2l64.1-20.3,25.7,81ZM86.5,677.2l23.8,75.3L168.7,734l-23.8-75.4Z" transform="translate(0 0)" style="fill: #231f20"/>
  <polygon points="104.4 694 123.1 683.1 131.2 700.5 131.4 679.2 139.1 674.8 159 714.1 151.6 717.8 139.2 701.4 140 722.3 131.5 726.9 124 709.8 123.6 730.4 106.1 737 115.2 729 105.5 731.9 114.8 725.1 105.4 727.5 114.9 721.3 106.2 723.8 114.3 717.1 105.8 719.1 114.8 712.8 105.6 715.1 114.6 708.6 104.2 710.8 114.3 704 104.3 707.6 114 700.1 105.5 702.9 114.5 696 104.1 699 113 692.1 104.4 694" style="fill: #010101"/>
  <rect x="325.9" y="694.6" width="82.2" height="64.42" transform="translate(-438.9 842.6) rotate(-71.4)" style="fill: #fff"/>
  <path d="M385,775.7l-63.7-21.4,27.1-80.6,63.8,21.4Zm-59.9-23.3,58,19.5L408.4,697l-58.1-19.5Z" transform="translate(0 0)" style="fill: #231f20"/>
  <path d="M362,704.6l11.6-7.1,4.6,1.5-3.3,9.9,9.2,3.1-1.6,4.6-8.9-3s-12.9,27.5-9.8,31.5a10.8,10.8,0,0,0,7.7,4.1s-12.6,10.4-22.1-7.1l11.3-33.6-5-1.6,1.3-3.6Z" transform="translate(0 0)" style="fill: #010101"/>
  <rect x="136.7" y="12.8" width="70.8" height="84.8" style="fill: none"/>
  <rect x="135.4" y="27.2" width="73.3" height="56.07" transform="translate(87.8 215.1) rotate(-80)" style="fill: #fff"/>
  <path d="M207.4,22.9,149.8,12.8,136.7,87.4l57.6,10.2Zm-55.6-7.3,52.8,9.3L192.3,94.7l-52.8-9.3Z" transform="translate(0 0)" style="fill: #231f20"/>
  <polygon points="160.8 30.2 173.5 32.4 167.3 67.7 184.9 71 182.9 82.3 152.6 76.9 160.8 30.2" style="fill: #010101"/>
  <rect x="311.2" y="327.5" width="86.1" height="97.38" style="fill: none"/>
  <rect x="314.8" y="345.3" width="79" height="61.85" transform="translate(-109.3 604.4) rotate(-72.9)" style="fill: #fff"/>
  <path d="M373.2,424.9l-62-19,24.1-78.3,62,19Zm-58.2-21,56.2,17.3,22.3-72.6-56.2-17.3Z" transform="translate(0 0)" style="fill: #231f20"/>
  <path d="M364.8,385.6c-.7,2.9-2,5.2-7.5,5.4s-12.8-2.8-11.3-10.9l-10.3-.4s-.7,12.2,12.7,17.3,29-1.3,26.9-16.8c-1-7.4-8.7-9.4-17.6-15.7-1.9-1.2-4.5-7.5,2.4-8.7,4-.6,9.5,2,10.4,8.5h10.7s-2.2-12.4-14.5-16c-10.1-3-17.5,1-19.9,5l-11.8-.3,10.7,3.6-10.2.7,11.5,3.5-13,1.7,12.7,2.1-13.6,2.7,16,1.3-14.8,3,18.2,1-11.7,3.2,17,1.5-7.3,2.2,12.6,1.9-7.8,2.7Z" transform="translate(0 0)" style="fill: #010101"/>
</svg>
