<?xml version="1.0" encoding="utf-8"?>
<!-- Generator: Adobe Illustrator 23.0.3, SVG Export Plug-In . SVG Version: 6.00 Build 0)  -->
<svg version="1.1" id="Слой_1" xmlns="http://www.w3.org/2000/svg" xmlns:xlink="http://www.w3.org/1999/xlink" x="0px" y="0px"
	 viewBox="0 0 466.4 775.7" style="enable-background:new 0 0 466.4 775.7;" xml:space="preserve">
<style type="text/css">
</style>
<title>11111</title>
<rect x="150.8" y="55" style="fill:none" width="166.8" height="65"/>
<rect x="218.1" y="115.6" transform="matrix(0.9914 -0.1312 0.1312 0.9914 -17.6571 33.5331)" style="fill:#FFFFFF" width="55.1" height="70.4"/>
<path style="fill:#000000" d="M221.7,190.9l-9.6-72.7l57.6-7.6l9.6,72.7L221.7,190.9z M215.4,120.8l8.9,66.8l51.7-6.9l-8.9-66.8L215.4,120.8z
	"/>
<path style="fill:#000000" d="M239.9,136.9c-3.4,0.6-7,0.7-10.4,0.4c-0.6-0.1-1.2-0.2-1.9-0.3l1-3.4c0.4-1.4,0.9-2.8,1.3-4.2
	c0.2-0.6,0.5-0.8,1.2-0.7c4.5,0.3,9.1,0.2,13.6-0.3c4.6-0.6,9.1-1.8,13.5-3.4l0.5-0.1c-0.1,0.6-0.2,1.1-0.2,1.5c-0.4,2-0.8,4-1.1,6
	c0,0.5-0.4,0.9-0.9,0.9c-3.8,1-7.6,2-11.4,3c-0.2,0-0.5,0.2-0.7,0.3c1.1,0.4,2.1,0.8,3.2,1.1s1.1,0.8,0.8,1.6
	c-1.9,5.6-2.8,11.5-2.5,17.4c0.2,4.6,1,9.1,1.6,13.7c0.1,0.9-0.1,1.1-1,1.4c-3,1.1-6,2.4-8.9,3.6l-1.1,0.5
	C235,162.9,237,149.9,239.9,136.9z"/>
<rect x="391.9" y="157.3" transform="matrix(0.3183 -0.948 0.948 0.3183 115.8959 530.9293)" style="fill:#FFFFFF;" width="70.4" height="55.1"/>
<path style="fill:#000000" d="M443,228.9l-55.1-18.5l23.4-69.6l55.1,18.5L443,228.9z M391.7,208.5l49.4,16.6l21.4-63.9l-49.4-16.6
	L391.7,208.5z"/>
<path style="fill:#000000" d="M454.9,168.1l-17.6,8.4c0,0-6.8,1.9-4.9-6.4c1.4-6.2-5.9-4.4-7.5-3.3c-2.7,1.9-6.6,9.2,2.1,12.2
	c9.7,3.3,13.8,10.8,9.3,20c-0.5,1.4-1.5,2.5-2.9,3.1l-17.5,6.5c-1.5,0.5-3.2,0.2-4.3-0.9c-2.3-2.1-2.9-2.5-4.3-5.7
	c-1-2.4-1.3-5.8-1.5-6.8c-0.4-1.6-2.2-2-3.7-1.9l9.3-4.5c0,0,3.2,0.2,5.1,10c0.4,1.9,5.2,3.8,8.1,1.7c5.2-3.9,9-13.3-4.8-17
	c-10.3-2.8-7.3-12.8-7.3-12.8s1.9-9.2,12.8-9.9c7.7-0.5,12-0.4,13.9-0.4c0.9,0,1.8,0.3,2.5,0.9c1.4,1.1,2.1,3,1.6,4.7
	C442.1,170.2,454.9,168.1,454.9,168.1z"/>
<rect x="14.1" y="136.1" transform="matrix(0.9092 -0.4163 0.4163 0.9092 -67.5277 32.9073)" style="fill:#FFFFFF;" width="55.1" height="70.4"/>
<path style="fill:#000000" d="M30.5,216.8L0,150.1l52.8-24.2l30.5,66.7L30.5,216.8z M4,151.5L32,212.8l47.4-21.7l-28-61.2L4,151.5z"/>
<path style="fill:#000000" d="M36.8,157.5l3.4,8.9c0,0,2.5,7.4,3,8.6s2.6,9.9,5,9.6s7.6-3,8.1-4.2s1.8-3.7,1.4-5.8s2.3-7.3,5.1-1.7
	s1.6,12.9,0.9,13.7s-5.6,1.9-8.9,3.7s-13.8,5.4-16.8,7.4s-5.5-0.4-4.9-2.8s2.7-2.5,0.8-8.9S26,162.7,26,162.7
	c-0.4-1.4-1.8-2.4-3.3-2.2c-2.5,0.3-3.4-4.1-2.1-4.8c0.7-0.4,8.7-3.9,14-6.1c2.7-1.1,5.6,4.1,3.5,5.3
	C38,154.9,36.4,155.3,36.8,157.5z"/>
<rect x="270.5" y="140.8" transform="matrix(0.2929 -0.9562 0.9562 0.2929 55.2085 411.3449)" style="fill:#FFFFFF;" width="70.4" height="55.1"/>
<path style="fill:#000000" d="M322.8,211.9l-55.6-17l21.5-70.2l55.6,17L322.8,211.9z M320.8,208.2l19.7-64.4l-49.9-15.3l-19.7,64.4"/>
<path style="fill:#000000" d="M294.7,143.4l12.9,1.4c0,0,1.8,4.2,0.2,7.1l8.8-3c0,0,0.6,8.6,12.5,7.9c0,0-7.6,12.2-22.9-0.9
	c0,0-17.3,27.8-7.9,31.5l-12.5-0.9c0,0-10.2-3.2,9.5-36.1C295.3,150.3,297.7,143.9,294.7,143.4z"/>
<rect x="342.8" y="120" transform="matrix(0.9226 -0.3857 0.3857 0.9226 -31.2098 154.8706)" style="fill:#FFFFFF;" width="55.1" height="70.4"/>
<path style="fill:#000000" d="M357.7,200.3l-28.3-67.7l53.6-22.4l28.3,67.7L357.7,200.3z M333.3,134.2l26,62.1l48.1-20.1l-26-62.2
	L333.3,134.2z"/>
<path style="fill:#000000" d="M387.2,165.1c-17.6,6.1-18.3-4.4-18.3-4.4s5.5-3.5,14.5-10.2s-14.9-18.7-14.9-18.7l-19.6,7.1
	c6.1,1.4,7.2,26.3,8.4,30.6s19.1,8.6,19.1,8.6l13.8-10.7C390.8,165.5,387.2,165.1,387.2,165.1z M364.6,140.1c0,0,11.1,7.8,11,11.2
	s-8.3,6.1-8.3,6.1L364.6,140.1z"/>
<rect x="69.9" y="116.3" transform="matrix(7.671903e-02 -0.9971 0.9971 7.671903e-02 -46.4858 237.6105)" style="fill:#FFFFFF;" width="70.4" height="55.1"/>
<path style="fill:#000000" d="M131.2,182.7l-57.9-4.5l5.6-73.2l57.9,4.5L131.2,182.7z M76.5,175.5l52,4l5.2-67.2l-52-4L76.5,175.5z"/>
<path style="fill:#000000" d="M118.3,140.3c-1.1,1.8-2.2,3.5-3.2,5.2c-0.4,0.7-0.8,1.7-1.4,2s-1.6-0.2-2.4-0.4c-3.8-0.8-7.6-1.1-11.4-0.8
	c-0.6,0-0.8,0.2-1,0.7c-0.7,2.5-1.4,4.9-2.1,7.4c-0.1,0.4-0.4,0.7-0.7,1c-1.4,1.1-2.9,2.1-4.6,3.3c8-0.5,15.9-1,23.7,1.2l-4,8
	c-8.9-2.7-17.8-2.8-27.1-1.9c0.1-0.4,0.2-0.6,0.3-0.9c0.7-1.4,1.3-2.8,2-4.1c1.4-2.7,2.4-5.6,2.8-8.6c1.2-6.7,3.2-13.2,5.9-19.5
	c0.2-0.5,0.6-0.9,1.1-1.2c1.9-1.1,3.8-2.2,5.8-3.3l-0.1-0.2l-8.4,0.7c0.1-0.2,0.2-0.4,0.3-0.6c1-1.7,2-3.5,3.1-5.2
	c0.3-0.4,0.6-0.7,1.1-0.8c8-1.7,16.3-2,24.5-0.9c1.2,0.2,2.4,0.5,3.7,0.8l-3.7,8c-2.1-0.5-4.2-1-6.2-1.3c-2.6-0.4-5.1-0.5-7.7-0.7
	c-0.3,0-0.7,0.2-0.9,0.4c-2.9,4.2-5.3,8.8-6.9,13.6c0,0.2,0,0.3,0,0.5c1-0.9,1.8-1.7,2.7-2.4c0.3-0.3,0.6-0.4,0.9-0.5
	C108.8,139.3,113.6,139.4,118.3,140.3z"/>
<rect x="128.8" y="134.5" transform="matrix(0.2614 -0.9652 0.9652 0.2614 -35.2853 277.6585)" style="fill:#FFFFFF;" width="70" height="54.8"/>
<path style="fill:#000000" d="M182.9,206.4l-56.1-15.2l19.2-70.8l56.1,15.2L182.9,206.4z M130.5,189.1l50.3,13.7l17.7-65l-50.3-13.7
	L130.5,189.1z"/>
<path style="fill:#000000" d="M161.2,149.4l-9.8,24c0,0-2.5,2.9-5.4,2.7s-2,6,4.1,7.3s13.8,6.2,16.1,0.2c0,0,0.9-2.1-1.8-3.2
	s9.4-26.8,9.4-26.8s3.3-3.1,3.9,6.7c0,0,4,6.9,7.8-3c0,0,1.8-8.9-1.8-11.2s-9-2.5-12.6-3.7s-7.6-3.7-10.9-4.2s-13.8,9.5-10.8,13.5
	s7.6-3.4,9.8-3.5S161.2,149.4,161.2,149.4z"/>
<rect x="209.9" y="5.3" transform="matrix(0.9916 -0.129 0.129 0.9916 -3.7151 31.386)" style="fill:#FFFFFF;" width="61.2" height="78.2"/>
<path style="fill:#000000" d="M213.9,88.8L203.4,8.3L267.1,0l10.5,80.5L213.9,88.8z M206.8,10.9l9.7,74.5l57.8-7.5l-9.7-74.5L206.8,10.9z"/>
<polygon style="fill:#000000" points="230.6,51.1 219.3,56.5 230.1,55.3 219.3,60.7 229.7,59.3 219.4,64.9 229.8,63.7 219.5,69.3 228.8,68.5 
	219.2,74.1 230.6,72.6 257.2,63.3 257.2,51.6 239.2,58 239.6,52.3 247.9,49.2 247.7,36.9 238.9,39.7 239.6,33.5 258.7,27.2 
	259.1,16.7 228.3,26.3 219.6,30.7 231,29.2 219.6,34.6 229.8,33.8 219.7,38.7 230.5,37.7 219.7,43 230.3,41.6 219.1,47.7 
	228.6,46.5 218.2,52.7 "/>
<rect x="265.7" y="26.5" transform="matrix(0.1944 -0.9809 0.9809 0.1944 189.5083 345.0505)" style="fill:#FFFFFF;" width="78.2" height="61.2"/>
<path style="fill:#000000" d="M328.4,103.2l-63-12.5l15.8-79.6l63,12.5L328.4,103.2z M268.9,88.3l57.1,11.3l14.6-73.8l-57.1-11.3L268.9,88.3z
	"/>
<path style="fill:#000000" d="M314.6,48.1l10.4-1.3c0,0-3.3-11.9-15.7-14.2c-10.1-1.9-16.9,2.7-18.9,7c-2.5,5.3-8.1,16.2,14.7,24.2
	c5.4,1.9,7.7,9.3,0.4,11.4c-3.9,1.1-13.8-1.1-13.2-9.2l-10.1,0.7c0,0,0.5,12,14,15.6c14.7,4,28.2-4.3,24.5-19.2
	c-1.7-7.1-9.3-8.3-18.7-13.5c-1.9-1.1-5.1-7,1.6-8.8C307.6,39.8,313.1,41.8,314.6,48.1z"/>
<rect x="230.7" y="252.2" transform="matrix(0.3188 -0.9478 0.9478 0.3188 -84.4015 451.1526)" style="fill:#FFFFFF;" width="82" height="64.3"/>
<path style="fill:#000000" d="M290,335.3l-63.8-21.4l27.1-80.6l63.8,21.4L290,335.3z M230,312l58.1,19.5l25.2-74.9l-58.1-19.5L230,312z"/>
<path style="fill:#000000" d="M286,298.9c-0.2-6.5-1.8-8.2-1.8-8.2l-11.4,5.3c0,0,1.9,8.5-4.8,10.7s-8-11.8-3.9-17.2c0,0,15.4-6.4,20.8-7.4
	s-2.6-21,0.1-25.5c2.7-4.5-18.6,1.5-21.1,3.8s-32.8,45.7-6.1,52.7C257.8,313.1,286.2,305.4,286,298.9z M272.5,270.4
	c-1.5,3.7,1.9,10,1.2,11s-8.6,2.9-8.6,2.9C266.2,276.4,274,266.6,272.5,270.4z"/>
<rect x="174.4" y="218.5" transform="matrix(0.9896 -0.1437 0.1437 0.9896 -35.1434 32.3591)" style="fill:#FFFFFF;" width="64.3" height="82"/>
<path style="fill:#000000" d="M179.3,306.4l-12.2-84.1l66.6-9.7l12.2,84.1L179.3,306.4z M170.5,224.8l11.4,78.2l60.6-8.8L231.1,216
	L170.5,224.8z"/>
<path style="fill:#000000" d="M197.5,286.7c0,0,42.8,4.7,35-34.1c-1.3-5.6-5.4-24.1-43.2-12.1l-11.5,5l12.3,0.2l-11.7,5.3l14-0.9l-13.3,5.9
	l13.5-1.1l-12.9,5.8l13.7-0.9l-13,5.4l13.7-0.8l-12.4,5l13.2-0.9l-13.1,6.2l13.1-1.4l-12.6,5.5l13.3-0.4l-12.1,4.6l12.6-0.1
	l-10.8,4.4L197.5,286.7z M204.7,277.5l-5.3-31.1c21.2-6.9,22.6,10.3,22.6,10.3C225.9,278.8,204.7,277.5,204.7,277.5L204.7,277.5z"/>
<rect x="71.8" y="314.2" transform="matrix(0.9803 -0.1975 0.1975 0.9803 -67.8163 27.2429)" style="fill:#FFFFFF;" width="61.8" height="79"/>
<path style="fill:#000000" d="M79,400.2l-16.2-80.3l63.6-12.8l16.2,80.3L79,400.2z M66.3,322.2l15,74.5l57.7-11.6l-15-74.5L66.3,322.2z"/>
<path style="fill:#000000" d="M87,330.9l9.5-4.8c0.8,4.4,1.1,8.8,0.9,13.3l0.5-1c1.6-3.8,3.6-7.4,6-10.8c0.3-0.4,0.6-0.7,0.8-1
	c2.7-3.1,4.9-3.7,8.7-2.2c3.3,1.3,6.1,3.2,7.1,6.8c0.8,2.9,0.6,5.9-0.6,8.7c-1,2.4-2.4,4.5-4.2,6.4c-2.3,2.4-4.8,4.6-7.4,7
	c4,7.1,10,12.8,16.4,18.3l-6.7,7.8c-7.8-6.9-14.6-14.5-18.8-24.3c0.5-0.4,1-0.7,1.5-1c2.3-1.7,4.5-3.5,6.6-5.4c4-4,4.3-8.8,2.5-13.9
	c-0.1-0.3-0.3-0.5-0.5-0.7c-0.7-0.4-1.4-0.8-2.1-1.1l-0.9-0.4c-2.5,2.5-4.5,5.6-5.7,9c-2,5.3-2.6,10.8-3,16.4
	c-0.5,6.6-1,13.3-1.6,19.9c-0.1,1.4-0.4,2.8-0.9,4.1c-0.6,1.9-2.1,2.5-3.8,1.5c-1.4-0.9-2.7-2-3.9-3.2c-2.9-2.8-3.5-6.1-2.1-10
	c1.4-4.1,2.5-8.3,3.4-12.5c0.8-4.6,0.9-9.4,0.2-14c-0.5-4.1-1.2-8.2-1.9-12.3C87,331.4,87,331.1,87,330.9z"/>
<rect x="227.8" y="357.4" transform="matrix(0.1724 -0.985 0.985 0.1724 -161.3165 584.5435)" style="fill:#FFFFFF;" width="79" height="61.9"/>
<path style="fill:#000000" d="M292.1,434.2l-63.9-11.2l14.1-80.7l63.9,11.2L292.1,434.2z M231.7,420.6l58,10.1l13.1-74.9l-58-10.1
	L231.7,420.6z"/>
<path style="fill:#000000" d="M268.9,371.7l-2.8,10.8c0,0,1.2,2.5,4.4,0.9c1.2-1.4,2.1-3,2.7-4.8c1-2.8,5-1.4,4.6,1.3s-3.2,19.6-7.6,20
	s0-7.4-2.8-8.1s-3.8-0.6-4.3,0.9s-4.2,11.2-1.6,12.5s9.3,2.3,10.6,1.4s4.2-2.4,5.2-4.7s7.1-5.4,6,1.8s-7.1,13.5-8.4,13.7
	s-6.7-1.9-11.1-2.4s-16.9-4.1-21.1-4.2s-5-4-2.9-6s4.2-0.6,6.8-8s8.2-27.5,8.2-27.5s1-3-1.7-4.3s-0.5-6.3,1.2-6s26.1,4.5,28.6,4.6
	s4.1-0.5,4.7,1.1c1.4,3.3,1.6,7,0.4,10.4c-1.6,5.2-2.1,4.5-4.1,4.4s-0.8-7.3-10.5-9.2C273.5,370.3,270,369.3,268.9,371.7z"/>
<rect x="173.3" y="334.8" style="fill:#FFFFFF;" width="61.9" height="79"/>
<path style="fill:#000000" d="M236.7,415.3h-64.9v-81.9h64.9V415.3z M174.8,412.3h58.9v-75.9h-58.9L174.8,412.3z"/>
<path style="fill:#000000" d="M183.3,351.6l12-3.4c0,0,5.7,0.6,3.8,8.9s-8.2,35-1.1,34s9.4-2.3,9.4-2.3s9.7-30,2.8-36.3c0,0,9.5-4.3,10.8-3.9
	s7,2.3,6.6,4.3s-9.7,42.5-3,43.1l-13.5,3.5c0,0-3.5-4-3-6.5c0,0-16.6,6.1-18.9,6s-11.2-4-7.1-24.4S186.7,354.2,183.3,351.6z"/>
<rect x="157.1" y="446.8" transform="matrix(0.1977 -0.9803 0.9803 0.1977 -310.5255 578.426)" style="fill:#FFFFFF;" width="82" height="64.3"/>
<path style="fill:#000000" d="M222.7,527.2l-65.9-13.3l16.8-83.3l65.9,13.3L222.7,527.2z M160.3,511.6l60,12.1l15.6-77.5l-60.1-12.1
	L160.3,511.6z"/>
<path style="fill:#000000" d="M197.3,445.1c0,0-7.6-2.9-8.2-1.7s-7.3,2,1.1,14.1c0,0-14.3,38.6-15.2,40.3s-4.9,1.2-2.1,4.4s4,3,4,4.1
	s-1.4,3.7,3.8,2.3s35.1-12.6,38.6-27S225,457.7,197.3,445.1z M184.3,493.3c4.1-4,18.1-35.8,18.1-35.8c3.2,1.2,6.3,2.9,9,4.9
	C215.8,476.8,184.4,493.3,184.3,493.3L184.3,493.3z"/>
<rect x="239.6" y="457.9" transform="matrix(0.9848 -0.1736 0.1736 0.9848 -82.5078 54.7617)" style="fill:#FFFFFF;" width="64.3" height="82"/>
<path style="fill:#000000" d="M245.9,546.6l-14.8-83.7l66.2-11.7l14.8,83.7L245.9,546.6z M234.7,465.3l13.7,77.8l60.3-10.6L295,454.7
	L234.7,465.3z"/>
<path style="fill:#000000" d="M290.1,501.7c0,0-2.1,12.8-22.2,8.7c0,0,0.2-9,5.3-12.2s20.8-15.4,15.7-24.9s-35.9-0.8-37.3,10.7
	s-5.2,27.8,6.8,38.4s16.2,2.8,21.5,2.3s5.4,1.6,9.4-0.8S303,509.7,290.1,501.7z M258.3,493.8c-1.2-9.9,5.3-18.4,14.8-17
	s6.3,11.8-0.7,14.6s-9.5,16-9.5,16S259.5,503.7,258.3,493.8z"/>
<rect x="79.1" y="517.2" style="fill:#FFFFFF;" width="64.3" height="82"/>
<path style="fill:#000000" d="M144.8,600.7H77.6v-85h67.3L144.8,600.7z M80.6,597.7h61.3v-79H80.6V597.7z"/>
<path style="fill:#000000" d="M122.5,548.7h11.7c0,0,1.2-20.3-19.1-19.2c-26.7,1.5-37.7,52.7-13.6,56.8c0,0,22.6,5.2,27.6-16.2l-11.7-0.4
	c0,0-2.7,10.3-14,8.1s-4.8-41.1,11.7-40.5C126.4,537.7,122.5,548.7,122.5,548.7z"/>
<rect x="254.6" y="673.1" transform="matrix(0.9357 -0.3528 0.3528 0.9357 -233.5179 147.0715)" style="fill:#FFFFFF;" width="64.3" height="82"/>
<path style="fill:#000000" d="M270.2,765.8l-30-79.6l62.9-23.7l30,79.6L270.2,765.8z M244.1,688l27.9,74l57.3-21.6l-27.9-73.9L244.1,688z"/>
<path style="fill:#000000" d="M257.7,702.2l4.8,0.7l5.3,13.9l-2.7,3.8l4.2,1l6.4,16.8l-3.1,3.7l1.5,4.1l16.9-6.2l-1.1-3.7l-4.5-1l-7.7-23.3
	l25.7,22.9l12.6-4.8l-1.4-4.3c0,0-4.5,0.3-4.9-0.5s-5.1-16.9-5.1-16.9l2.6-3.6l-4-0.9c0,0-5.3-11.9-5-13.7s2.8-3.9,2.8-3.9l-1.4-4.3
	l-16.5,5.7l1.1,4.7l4.9,1l8.3,24L270,692.6l-13.8,4.8L257.7,702.2z"/>
<rect x="166.4" y="548.2" transform="matrix(0.9895 -0.1449 0.1449 0.9895 -83.2712 34.9821)" style="fill:#FFFFFF;" width="64.3" height="82"/>
<path style="fill:#000000" d="M171.4,636.2l-12.3-84.1l66.6-9.7l12.3,84.1L171.4,636.2z M162.5,554.6l11.4,78.2l60.6-8.9l-11.5-78.2
	L162.5,554.6z"/>
<path style="fill:#000000" d="M185.9,559.5c0,0-12.9,57-0.9,62.6s8.8-12.8,12.3-20.2c0,0,4.3,13.8,12.2,11.6s11.4-10.6,11.4-18.2
	c0,0-1.4-2.7-4.1-0.7s-3.1,12.1-7.5,12.6s0.1-15.7,2.5-20.6s-8.3-9.3-9.4-8.8s-13.3,27.4-13.8,31s7-39.4,9.1-43.8
	S188,555.9,185.9,559.5z"/>
<rect x="343.5" y="537.8" transform="matrix(0.9441 -0.3295 0.3295 0.9441 -169.769 156.1032)" style="fill:#FFFFFF;" width="64.3" height="82"/>
<path style="fill:#000000" d="M357.9,630.1l-28-80.3l63.5-22.2l28,80.3L357.9,630.1z M333.7,551.6l26,74.6l57.8-20.2l-26-74.6L333.7,551.6z"
	/>
<path style="fill:#000000" d="M345.1,556.1c0,0,9.9,31.5,12.7,36.5s8.2,15.3,25.3,9.7s16.2-17.9,14.9-23.3s-11.8-37.1-11.8-37.1l-11.3,3.9
	c0,0,11.1,31.9,11.4,35s1.4,7.8-6.2,10.4s-10.9-1.3-12.3-6.2s-11.7-32.6-11.7-32.6L345.1,556.1z"/>
<rect x="226.7" y="569.8" transform="matrix(0.2568 -0.9665 0.9665 0.2568 -382.7859 706.1456)" style="fill:#FFFFFF;" width="82" height="64.3"/>
<path style="fill:#000000" d="M289.3,651.7l-65-17.3l21.8-82.2l65,17.3L289.3,651.7z M228,632.3l59.2,15.7l20.3-76.4l-59.2-15.7L228,632.3z"
	/>
<polygon style="fill:#000000" points="250,600.9 259.5,603.4 272.5,583.8 275.1,607.5 283.1,609.7 280.4,573.3 270.9,570.8 "/>
<polygon style="fill:#000000" points="246,607 284.4,617.2 285.6,634.7 278,632.7 276.5,623.7 249.3,616.5 244,623.6 236,621.5 "/>
<rect x="171.1" y="673.4" transform="matrix(8.941581e-02 -0.996 0.996 8.941581e-02 -509.5702 853.6518)" style="fill:#FFFFFF;" width="82" height="64.3"/>
<path style="fill:#000000" d="M241.8,750.8l-67-6l7.6-84.7l67,6L241.8,750.8z M178.1,742.1l61,5.5l7.1-78.7l-61-5.5L178.1,742.1z"/>
<path style="fill:#000000" d="M228.3,687.7l-29-2.6c-5.7-0.5-10.7,3.7-11.2,9.4l-1.4,15.2c-0.5,5.7,3.7,10.7,9.4,11.2c0,0,0,0,0,0l29,2.6
	c5.7,0.5,10.7-3.7,11.2-9.4c0,0,0,0,0,0l1.3-15.2C238.2,693.2,234,688.2,228.3,687.7z M225.4,709.7c-0.3,3.1-3,5.4-6.1,5.1
	c0,0,0,0,0,0l-15.8-1.4c-3.1-0.3-5.4-3-5.1-6.1l0.8-8.3c0.3-3.1,3-5.4,6.1-5.1c0,0,0,0,0,0l15.8,1.4c3.1,0.3,5.4,3,5.1,6.1
	c0,0,0,0,0,0L225.4,709.7z"/>
<rect x="95.5" y="664.5" transform="matrix(0.9532 -0.3022 0.3022 0.9532 -207.2567 71.5502)" style="fill:#FFFFFF;" width="64.3" height="82"/>
<path style="fill:#000000" d="M108.4,756.2l-25.7-81l64.1-20.3l25.7,81L108.4,756.2z M86.5,677.2l23.9,75.3l58.4-18.5l-23.9-75.3L86.5,677.2z
	"/>
<polygon style="fill:#000000" points="104.4,694 123.1,683.1 131.2,700.5 131.4,679.2 139.1,674.8 159,714.2 151.6,717.8 139.2,701.4 
	140,722.3 131.5,726.9 123.9,709.8 123.6,730.3 106.1,737 115.2,729 105.5,731.8 114.8,725.1 105.4,727.5 114.9,721.3 106.2,723.8 
	114.3,717.2 105.8,719.1 114.8,712.8 105.6,715.1 114.6,708.6 104.2,710.8 114.3,704 104.3,707.6 114,700.1 105.5,702.9 114.5,696 
	104.1,699 113,692.1 "/>
<rect x="325.9" y="694.6" transform="matrix(0.3192 -0.9477 0.9477 0.3192 -438.9087 842.6442)" style="fill:#FFFFFF;" width="82.2" height="64.4"/>
<path style="fill:#000000" d="M385,775.7l-63.8-21.5l27.1-80.6l63.8,21.5L385,775.7z M325.1,752.4l58.1,19.5l25.2-74.9l-58.1-19.5
	L325.1,752.4z"/>
<path style="fill:#000000" d="M362,704.6l11.5-7.1l4.6,1.5l-3.3,9.9l9.2,3.1l-1.5,4.6l-8.9-3c0,0-12.9,27.5-9.9,31.5c1.9,2.4,4.7,3.9,7.8,4.1
	c0,0-12.7,10.4-22.2-7.1l11.3-33.6l-4.9-1.6l1.2-3.6L362,704.6z"/>
<rect x="136.7" y="12.8" style="fill:none" width="70.8" height="84.8"/>
<rect x="135.4" y="27.2" transform="matrix(0.1735 -0.9848 0.9848 0.1735 87.8162 215.062)" style="fill:#FFFFFF;" width="73.3" height="56.1"/>
<path style="fill:#000000" d="M207.4,22.9l-57.6-10.1l-13.1,74.6l57.6,10.1L207.4,22.9z M151.8,15.6l52.8,9.3l-12.3,69.8l-52.8-9.3
	L151.8,15.6z"/>
<polygon style="fill:#000000" points="160.8,30.2 173.5,32.4 167.3,67.7 184.9,71 182.9,82.3 152.6,76.9 "/>
<rect x="311.2" y="327.5" style="fill:none" width="86.1" height="97.4"/>
<rect x="314.8" y="345.3" transform="matrix(0.2935 -0.9559 0.9559 0.2935 -109.3421 604.4242)" style="fill:#FFFFFF;" width="79" height="61.9"/>
<path style="fill:#000000" d="M373.2,424.9l-62-19l24.1-78.3l62,19L373.2,424.9z M315,403.9l56.3,17.3l22.3-72.6l-56.3-17.3L315,403.9z"/>
<path style="fill:#000000" d="M364.8,385.6c-0.7,2.9-2,5.2-7.5,5.4c-4.1,0.2-12.8-2.8-11.2-10.9l-10.4-0.3c0,0-0.6,12.2,12.7,17.3
	c14.5,5.6,29-1.4,26.9-16.8c-1-7.4-8.6-9.4-17.6-15.6c-1.9-1.3-4.5-7.6,2.5-8.7c4-0.7,9.4,2,10.3,8.5l10.7-0.2c0,0-2.1-12.3-14.5-16
	c-10.1-3-17.4,1-19.9,5.1l-11.8-0.3l10.6,3.6l-10.1,0.7l11.5,3.5l-13,1.7l12.7,2l-13.6,2.7l15.9,1.3l-14.8,3l18.2,0.9l-11.7,3.2
	l17,1.5l-7.3,2.1l12.6,1.9l-7.8,2.7L364.8,385.6z"/>
</svg>
