<svg id="Слой_1" data-name="Слой 1" xmlns="http://www.w3.org/2000/svg" viewBox="0 0 466.34 776.05"><title>29bisbis</title><rect x="150.78" y="55" width="166.84" height="65.01" style="fill:none"/><rect x="218.05" y="115.56" width="55.13" height="70.37" transform="translate(-17.66 33.53) rotate(-7.54)" style="fill:#fff"/><path d="M221.66,190.92,212,118.18l57.64-7.64,9.63,72.73Zm-6.27-70.15,8.85,66.78,51.67-6.85L267,113.92Z" transform="translate(0 0)" style="fill:#231f20"/><path d="M239.85,136.92a39.6,39.6,0,0,1-10.43.38c-.6-.07-1.2-.18-1.93-.29l1-3.36c.43-1.38.91-2.76,1.29-4.16.17-.63.49-.79,1.16-.73a71.87,71.87,0,0,0,13.6-.31A65.06,65.06,0,0,0,258,125.07l.49-.15c-.1.58-.17,1-.25,1.53-.37,2-.76,4-1.09,6a1,1,0,0,1-.87.92l-11.35,3a1.31,1.31,0,0,0-.67.32c1.06.38,2.1.8,3.18,1.11s1.08.82.83,1.55a46.1,46.1,0,0,0-2.51,17.39c.25,4.58,1,9.13,1.57,13.68.12.85-.09,1.13-1,1.45-3,1.14-6,2.38-8.94,3.59l-1.13.49C235,162.86,237,149.92,239.85,136.92Z" transform="translate(0 0)" style="fill:#010101"/><rect x="391.92" y="157.32" width="70.37" height="55.13" transform="translate(115.9 530.93) rotate(-71.44)" style="fill:#fff"/><path d="M443,228.92l-55.1-18.5,23.35-69.55,55.1,18.5Zm-51.33-20.4,49.41,16.59,21.44-63.86L413.1,144.66Z" transform="translate(0 0)" style="fill:#231f20"/><path d="M454.89,168.08l-17.61,8.4s-6.79,1.88-4.9-6.36c1.41-6.18-5.91-4.41-7.5-3.32-2.71,1.86-6.61,9.24,2.09,12.19,9.68,3.28,13.81,10.78,9.34,20a5.75,5.75,0,0,1-2.85,3.11l-17.55,6.54a4.23,4.23,0,0,1-4.32-.87c-2.34-2.07-2.9-2.54-4.27-5.69-1.05-2.39-1.28-5.82-1.53-6.81-.4-1.59-2.17-2-3.68-1.87l9.26-4.52s3.16.16,5.06,10c.38,1.94,5.22,3.8,8.06,1.7,5.24-3.89,9-13.28-4.83-17-10.29-2.77-7.27-12.83-7.27-12.83s1.94-9.22,12.77-9.85c7.71-.46,12-.43,13.87-.37a4,4,0,0,1,2.47.93,4.46,4.46,0,0,1,1.58,4.74C442.07,170.16,454.89,168.08,454.89,168.08Z" transform="translate(0 0)" style="fill:#010101"/><rect x="14.13" y="136.12" width="55.13" height="70.37" transform="translate(-67.53 32.91) rotate(-24.6)" style="fill:#fff"/><path d="M30.54,216.75,0,150.05l52.85-24.2,30.54,66.7ZM4,151.53,32,212.78l47.39-21.7-28-61.25Z" transform="translate(0 0)" style="fill:#231f20"/><path d="M36.77,157.51l3.37,8.91s2.52,7.35,3,8.65,2.56,9.89,5,9.56,7.64-3,8.12-4.24,1.79-3.73,1.36-5.83,2.33-7.29,5.09-1.73,1.65,12.87.87,13.67-5.59,1.92-8.92,3.73-13.8,5.36-16.78,7.36-5.47-.37-4.94-2.79,2.65-2.46.8-8.92S26,162.7,26,162.7a3.13,3.13,0,0,0-3.3-2.21c-2.51.32-3.4-4.13-2.14-4.79.69-.36,8.66-3.87,14-6.06,2.73-1.12,5.57,4.15,3.5,5.31C38,154.92,36.41,155.27,36.77,157.51Z" transform="translate(0 0)" style="fill:#010101"/><rect x="270.52" y="140.78" width="70.37" height="55.13" transform="translate(55.21 411.34) rotate(-72.97)" style="fill:#fff"/><path d="M322.78,211.92l-55.58-17,21.46-70.18,55.58,17Zm-2-3.74,19.72-64.41-49.85-15.28-19.72,64.43" transform="translate(0 0)" style="fill:#231f20"/><path d="M294.73,143.37l12.86,1.35s1.81,4.16.23,7.07l8.75-3s.6,8.63,12.54,7.9c0,0-7.61,12.16-22.85-.86,0,0-17.32,27.81-7.9,31.51l-12.52-.92s-10.17-3.21,9.45-36.11C295.29,150.3,297.66,143.86,294.73,143.37Z" transform="translate(0 0)" style="fill:#010101"/><rect x="342.78" y="120.03" width="55.13" height="70.37" transform="translate(-31.21 154.87) rotate(-22.69)" style="fill:#fff"/><path d="M357.66,200.31l-28.28-67.69L383,110.2l28.29,67.72Zm-24.37-66.08,26,62.15,48.1-20.1-26-62.16Z" transform="translate(0 0)" style="fill:#231f20"/><path d="M387.24,165.12c-17.56,6.13-18.31-4.43-18.31-4.43s5.52-3.49,14.53-10.17-14.9-18.73-14.9-18.73L349,138.86c6.06,1.4,7.21,26.27,8.37,30.61S376.45,178,376.45,178l13.81-10.71C390.83,165.52,387.24,165.12,387.24,165.12Zm-22.59-25s11.14,7.84,11,11.2-8.32,6.11-8.32,6.11Z" transform="translate(0 0)" style="fill:#010101"/><rect x="69.87" y="116.34" width="70.37" height="55.13" transform="translate(-46.49 237.61) rotate(-85.6)" style="fill:#fff"/><path d="M131.2,182.72l-57.95-4.46,5.63-73.15,58,4.46ZM76.47,175.5l52,4,5.19-67.16-52-4Z" transform="translate(0 0)" style="fill:#231f20"/><path d="M118.26,140.3c-1.14,1.84-2.16,3.51-3.19,5.16-.45.72-.77,1.74-1.44,2s-1.61-.25-2.43-.43a39.33,39.33,0,0,0-11.45-.78.93.93,0,0,0-1,.7c-.7,2.46-1.4,4.91-2.14,7.36a2.07,2.07,0,0,1-.67,1c-1.43,1.1-2.92,2.14-4.58,3.34,8-.48,15.87-1,23.68,1.21l-4,8C102.19,165.19,93.2,165,84,166c.14-.35.21-.61.33-.85.66-1.36,1.26-2.76,2-4.08a26.66,26.66,0,0,0,2.83-8.55A89.65,89.65,0,0,1,95,133a2.92,2.92,0,0,1,1.08-1.18c1.89-1.14,3.83-2.21,5.75-3.3l-.06-.24-8.36.67a5.24,5.24,0,0,1,.29-.64c1-1.74,2-3.48,3.1-5.19a1.88,1.88,0,0,1,1.07-.78,70,70,0,0,1,24.49-.91c1.2.16,2.37.49,3.66.77l-3.71,8c-2.13-.46-4.16-1-6.23-1.31-2.56-.35-5.15-.5-7.73-.69a1.21,1.21,0,0,0-.88.43,54.13,54.13,0,0,0-6.92,13.62,4.51,4.51,0,0,0,0,.52c1-.88,1.81-1.66,2.68-2.4a2,2,0,0,1,.91-.52A46.37,46.37,0,0,1,118.26,140.3Z" transform="translate(0 0)" style="fill:#010101"/><rect x="128.79" y="134.47" width="69.99" height="54.83" transform="translate(-35.29 277.66) rotate(-74.85)" style="fill:#fff"/><path d="M182.93,206.41l-56.09-15.25,19.24-70.79,56.09,15.24Zm-52.41-17.35,50.3,13.67,17.67-65-50.3-13.67Z" transform="translate(0 0)" style="fill:#231f20"/><path d="M161.21,149.45l-9.75,24s-2.49,2.94-5.41,2.69-2,6,4.15,7.27,13.81,6.25,16.11.17c0,0,.86-2.14-1.83-3.23s9.39-26.79,9.39-26.79,3.34-3.08,3.86,6.73c0,0,4,6.87,7.8-3,0,0,1.83-8.89-1.76-11.22s-9-2.51-12.6-3.72-7.65-3.71-10.88-4.25-13.8,9.5-10.78,13.51,7.62-3.41,9.75-3.52S161.21,149.45,161.21,149.45Z" transform="translate(0 0)" style="fill:#010101"/><rect x="209.86" y="5.29" width="61.25" height="78.17" transform="translate(-3.72 31.39) rotate(-7.41)" style="fill:#fff"/><path d="M213.86,88.78,203.4,8.29,267.11,0l10.46,80.5Zm-7.1-77.86,9.69,74.54,57.76-7.54L264.52,3.38Z" transform="translate(0 0)" style="fill:#231f20"/><polygon points="230.6 51.12 219.33 56.52 230.06 55.3 219.33 60.67 229.69 59.32 219.35 64.91 229.75 63.71 219.54 69.3 228.79 68.55 219.25 74.09 230.6 72.61 257.25 63.31 257.25 51.65 239.19 58.03 239.62 52.32 247.87 49.21 247.73 36.95 238.92 39.72 239.63 33.51 258.68 27.19 259.1 16.75 228.31 26.27 219.56 30.69 231.02 29.2 219.6 34.65 229.75 33.78 219.67 38.71 230.5 37.75 219.69 43.01 230.31 41.63 219.07 47.73 228.61 46.49 218.23 52.69 230.6 51.12" style="fill:#010101"/><rect x="265.74" y="26.52" width="78.17" height="61.25" transform="matrix(0.19, -0.98, 0.98, 0.19, 189.51, 345.05)" style="fill:#fff"/><path d="M328.44,103.2l-63-12.49,15.78-79.62,63,12.48Zm-59.5-14.85,57.14,11.32,14.58-73.75-57.1-11.31Z" transform="translate(0 0)" style="fill:#231f20"/><path d="M314.56,48.14,325,46.86S321.66,35,309.26,32.66c-10.13-1.92-16.87,2.71-18.85,7C288,45,282.27,55.89,305.13,63.86c5.43,1.89,7.71,9.33.36,11.37-3.88,1.07-13.82-1.12-13.17-9.23l-10.1.73s.55,12,14,15.62c14.68,4,28.16-4.28,24.55-19.2-1.72-7.14-9.34-8.34-18.7-13.51-1.94-1.07-5.1-7,1.56-8.77C307.55,39.81,313.05,41.82,314.56,48.14Z" transform="translate(0 0)" style="fill:#010101"/><rect x="230.65" y="252.16" width="82.02" height="64.26" transform="translate(-84.4 451.15) rotate(-71.41)" style="fill:#fff"/><path d="M290,335.31l-63.75-21.39,27.1-80.59,63.75,21.44ZM230.05,312l58.06,19.53,25.19-74.9-58.06-19.53Z" transform="translate(0 0)" style="fill:#231f20"/><path d="M286,298.86c-.18-6.54-1.75-8.16-1.75-8.16L272.82,296s1.92,8.45-4.79,10.69-8-11.83-3.87-17.17c0,0,15.36-6.35,20.75-7.44s-2.6-21,.11-25.49-18.64,1.53-21.1,3.75-32.83,45.7-6.09,52.71C257.83,313.06,286.19,305.4,286,298.86Zm-13.56-28.5c-1.51,3.72,1.92,10,1.2,11s-8.64,2.88-8.64,2.88C266.19,276.39,274,266.64,272.45,270.36Z" transform="translate(0 0)" style="fill:#010101"/><rect x="174.37" y="218.52" width="64.26" height="82.02" transform="translate(-35.14 32.36) rotate(-8.26)" style="fill:#fff"/><path d="M179.31,306.45,167.1,222.31l66.56-9.66,12.21,84.14Zm-8.81-81.61,11.35,78.21,60.63-8.8-11.35-78.2Z" transform="translate(0 0)" style="fill:#231f20"/><path d="M197.47,286.67s42.79,4.72,35-34.11c-1.33-5.58-5.44-24.06-43.23-12.15l-11.51,5,12.27.2-11.73,5.31,14-.93L179,255.92l13.52-1.08-12.85,5.83,13.66-.88-13,5.36,13.67-.82-12.4,5,13.21-.93-13.14,6.21,13.15-1.36-12.55,5.46,13.29-.38-12.08,4.59,12.56-.06-10.82,4.44Zm7.22-9.14-5.3-31.1c21.19-6.92,22.61,10.34,22.61,10.34,3.89,22-17.34,20.76-17.34,20.76Z" transform="translate(0 0)" style="fill:#010101"/><rect x="71.76" y="314.16" width="61.85" height="78.95" transform="translate(-67.82 27.24) rotate(-11.39)" style="fill:#fff"/><path d="M79,400.23,62.79,319.92l63.58-12.81,16.18,80.34Zm-12.65-78,15,74.45L139,385.06l-15-74.45Z" transform="translate(0 0)" style="fill:#231f20"/><path d="M87,330.92l9.5-4.84a61.77,61.77,0,0,1,.91,13.3l.49-1a54.7,54.7,0,0,1,6-10.75,10.55,10.55,0,0,1,.84-1c2.69-3.06,4.91-3.67,8.71-2.18,3.27,1.29,6,3.24,7,6.83a13.31,13.31,0,0,1-.61,8.69,19.4,19.4,0,0,1-4.19,6.35c-2.33,2.37-4.81,4.58-7.4,7,4,7.12,10,12.83,16.43,18.3l-6.72,7.8c-7.79-6.93-14.58-14.52-18.78-24.26.5-.35,1-.67,1.47-1a79.52,79.52,0,0,0,6.61-5.41c4-4,4.32-8.78,2.53-13.89a1.44,1.44,0,0,0-.54-.7c-.67-.41-1.38-.75-2.07-1.11l-.85-.39a24.66,24.66,0,0,0-5.69,9c-2,5.29-2.58,10.82-3,16.38-.52,6.63-1,13.26-1.61,19.88a18.23,18.23,0,0,1-.87,4.07c-.63,1.89-2.06,2.52-3.77,1.51a20.73,20.73,0,0,1-3.92-3.19c-2.9-2.82-3.46-6.08-2.13-10a110.13,110.13,0,0,0,3.44-12.47,42.18,42.18,0,0,0,.16-14c-.49-4.11-1.22-8.2-1.85-12.3A1.71,1.71,0,0,1,87,330.92Z" transform="translate(0 0)" style="fill:#010101"/><rect x="227.75" y="357.35" width="78.95" height="61.85" transform="translate(-161.32 584.54) rotate(-80.07)" style="fill:#fff"/><path d="M292.09,434.24l-63.88-11.18,14.13-80.72,63.88,11.18Zm-60.43-13.62,58,10.15,13.09-74.85-58-10.15Z" transform="translate(0 0)" style="fill:#231f20"/><path d="M268.85,371.73l-2.75,10.82s1.17,2.46,4.39.93a15.73,15.73,0,0,0,2.73-4.77c1-2.8,5-1.35,4.65,1.32s-3.18,19.65-7.64,20,0-7.44-2.84-8.12-3.82-.6-4.27.93-4.19,11.23-1.64,12.54,9.34,2.27,10.64,1.39,4.23-2.39,5.23-4.7,7.13-5.43,6,1.77-7.06,13.47-8.35,13.72-6.67-1.92-11.07-2.43-16.86-4.12-21.07-4.2-5-4-2.87-6,4.2-.57,6.76-8S255,369.48,255,369.48s1-3-1.68-4.34-.5-6.26,1.16-6,26.13,4.54,28.57,4.57,4.09-.49,4.73,1.09a14.44,14.44,0,0,1,.43,10.37c-1.62,5.23-2.09,4.51-4.14,4.43s-.83-7.33-10.52-9.25C273.53,370.28,270,369.34,268.85,371.73Z" transform="translate(0 0)" style="fill:#010101"/><rect x="173.32" y="334.82" width="61.85" height="78.95" style="fill:#fff"/><path d="M236.66,415.28H171.81V333.33h64.85Zm-61.86-3h58.86V336.33H174.81Z" transform="translate(0 0)" style="fill:#231f20"/><path d="M183.3,351.57l12-3.42s5.73.56,3.78,8.92-8.25,35-1.09,34,9.35-2.32,9.35-2.32,9.66-30,2.75-36.27c0,0,9.52-4.34,10.78-3.88s7,2.27,6.6,4.3-9.74,42.53-3,43.06l-13.53,3.47s-3.47-4-3-6.5c0,0-16.64,6.09-18.89,6s-11.24-4.05-7.05-24.37S186.66,354.2,183.3,351.57Z" transform="translate(0 0)" style="fill:#010101"/><rect x="157.08" y="446.78" width="82.02" height="64.26" transform="translate(-310.53 578.43) rotate(-78.6)" style="fill:#fff"/><path d="M222.66,527.22l-65.9-13.3,16.8-83.34,65.93,13.34Zm-62.4-15.64,60.05,12.11L236,446.22l-60.06-12.1Z" transform="translate(0 0)" style="fill:#231f20"/><path d="M197.31,445.14s-7.64-2.91-8.24-1.66-7.26,2,1.1,14.11c0,0-14.3,38.62-15.16,40.34s-4.88,1.24-2.08,4.38,4,3,4,4.06-1.42,3.66,3.82,2.31,35.13-12.64,38.55-27S225,457.74,197.31,445.14Zm-13,48.15c4.06-4,18.09-35.8,18.09-35.8a41.08,41.08,0,0,1,9,4.91c4.34,14.42-27.1,30.89-27.1,30.89Z" transform="translate(0 0)" style="fill:#010101"/><rect x="239.58" y="457.91" width="64.26" height="82.02" transform="translate(-82.51 54.76) rotate(-10)" style="fill:#fff"/><path d="M245.93,546.65l-14.75-83.73,66.24-11.67L312.17,535Zm-11.27-81.3,13.72,77.83,60.28-10.63L295,454.72Z" transform="translate(0 0)" style="fill:#231f20"/><path d="M290.05,501.74s-2.14,12.8-22.24,8.69c0,0,.17-9,5.34-12.17s20.76-15.4,15.72-24.89-35.94-.81-37.3,10.66-5.22,27.8,6.78,38.44,16.18,2.76,21.53,2.33,5.42,1.6,9.4-.81S303,509.66,290.05,501.74Zm-31.76-7.92c-1.17-9.92,5.27-18.37,14.76-17s6.33,11.81-.66,14.58-9.51,16-9.51,16S259.45,503.73,258.29,493.82Z" transform="translate(0 0)" style="fill:#010101"/><rect x="79.07" y="517.19" width="64.26" height="82.02" style="fill:#fff"/><path d="M144.83,600.72H77.57v-85h67.26Zm-64.26-3h61.26v-79H80.57Z" transform="translate(0 0)" style="fill:#231f20"/><path d="M122.53,548.74H134.2s1.22-20.28-19.06-19.16c-26.7,1.48-37.74,52.7-13.62,56.75,0,0,22.56,5.16,27.62-16.21l-11.67-.37s-2.72,10.32-14,8.11-4.75-41.08,11.68-40.54C126.42,537.69,122.53,548.74,122.53,548.74Z" transform="translate(0 0)" style="fill:#010101"/><rect x="254.55" y="673.1" width="64.26" height="82.02" transform="translate(-233.52 147.07) rotate(-20.66)" style="fill:#fff"/><path d="M270.2,765.78l-30-79.56,62.94-23.73,30,79.56ZM244.07,688,272,761.92l57.32-21.61-27.88-73.94Z" transform="translate(0 0)" style="fill:#231f20"/><path d="M257.66,702.17l4.8.74,5.26,13.9-2.67,3.85,4.19,1,6.42,16.76-3.07,3.68,1.46,4.06,16.85-6.24-1.15-3.65-4.54-1-7.71-23.35,25.71,22.91,12.6-4.77-1.35-4.29s-4.49.31-4.91-.46-5.13-16.86-5.13-16.86l2.56-3.61-4-.86s-5.32-11.87-5-13.68,2.82-3.9,2.82-3.9l-1.35-4.29-16.52,5.71,1.11,4.66,4.89,1,8.26,24L270,692.62l-13.81,4.75Z" transform="translate(0 0)" style="fill:#010101"/><rect x="166.43" y="548.23" width="64.26" height="82.02" transform="matrix(0.99, -0.14, 0.14, 0.99, -83.27, 34.98)" style="fill:#fff"/><path d="M171.41,636.2l-12.32-84.13,66.57-9.74L238,626.46Zm-8.91-81.59,11.44,78.19,60.62-8.88-11.45-78.19Z" transform="translate(0 0)" style="fill:#231f20"/><path d="M185.93,559.46s-12.86,57-.88,62.64,8.81-12.76,12.25-20.22c0,0,4.28,13.78,12.22,11.64S220.93,603,221,595.34c0,0-1.37-2.71-4.15-.69s-3.09,12.11-7.55,12.6.13-15.72,2.49-20.6-8.32-9.3-9.38-8.82-13.32,27.36-13.76,31,7-39.4,9.14-43.75S188,555.92,185.93,559.46Z" transform="translate(0 0)" style="fill:#010101"/><rect x="343.48" y="537.85" width="64.26" height="82.02" transform="translate(-169.77 156.1) rotate(-19.24)" style="fill:#fff"/><path d="M357.88,630.07l-28-80.28,63.5-22.16,28,80.27Zm-24.22-78.43,26,74.61,57.84-20.19-26-74.61Z" transform="translate(0 0)" style="fill:#231f20"/><path d="M345.15,556.15s9.87,31.5,12.73,36.47S366,608,383.17,602.27s16.24-17.89,14.89-23.35-11.82-37.08-11.82-37.08L375,545.78s11.15,31.92,11.37,35,1.36,7.77-6.18,10.4-10.89-1.31-12.32-6.21-11.66-32.59-11.66-32.59Z" transform="translate(0 0)" style="fill:#010101"/><rect x="226.73" y="569.83" width="82.02" height="64.26" transform="matrix(0.26, -0.97, 0.97, 0.26, -382.79, 706.15)" style="fill:#fff"/><path d="M289.34,651.68l-65-17.27,21.84-82.17,65,17.27ZM228,632.28,287.21,648l20.29-76.37-59.21-15.72Z" transform="translate(0 0)" style="fill:#231f20"/><polygon points="250.03 600.86 259.54 603.38 272.47 583.84 275.13 607.53 283.12 609.65 280.36 573.3 270.85 570.77 250.03 600.86" style="fill:#010101"/><polygon points="245.96 606.97 284.38 617.18 285.63 634.71 278.02 632.68 276.54 623.69 249.34 616.47 243.97 623.64 235.98 621.52 245.96 606.97" style="fill:#010101"/><rect x="171.07" y="673.38" width="82.02" height="64.26" transform="translate(-509.57 853.65) rotate(-84.87)" style="fill:#fff"/><path d="M241.82,750.85l-67-6,7.59-84.68,67,6Zm-63.74-8.73,61,5.47,7.08-78.67-61-5.48Z" transform="translate(0 0)" style="fill:#231f20"/><path d="M228.32,687.71l-29-2.6a10.35,10.35,0,0,0-11.24,9.39l-1.36,15.2a10.36,10.36,0,0,0,9.4,11.22h0l29,2.6a10.36,10.36,0,0,0,11.24-9.38h0l1.34-15.21A10.36,10.36,0,0,0,228.32,687.71Zm-2.94,22a5.63,5.63,0,0,1-6.11,5.12h0l-15.81-1.42a5.64,5.64,0,0,1-5.12-6.13l.75-8.29a5.63,5.63,0,0,1,6.11-5.12h0l15.8,1.42a5.65,5.65,0,0,1,5.13,6.13h0Z" transform="translate(0 0)" style="fill:#010101"/><rect x="95.47" y="664.55" width="64.26" height="82.02" transform="translate(-207.26 71.55) rotate(-17.59)" style="fill:#fff"/><path d="M108.39,756.25l-25.73-81,64.15-20.28,25.69,81ZM86.46,677.16l23.88,75.33L168.74,734l-23.89-75.33Z" transform="translate(0 0)" style="fill:#231f20"/><polygon points="104.39 693.97 123.08 683.13 131.23 700.47 131.37 679.16 139.14 674.77 159 714.15 151.58 717.75 139.16 701.4 140.02 722.32 131.48 726.9 123.95 709.81 123.61 730.35 106.14 737.02 115.15 729.01 105.47 731.85 114.81 725.12 105.41 727.47 114.89 721.26 106.23 723.82 114.35 717.15 105.81 719.13 114.84 712.76 105.57 715.07 114.56 708.58 104.16 710.77 114.31 703.98 104.28 707.59 113.97 700.09 105.51 702.87 114.53 695.96 104.07 698.99 112.96 692.12 104.39 693.97" style="fill:#010101"/><rect x="325.94" y="694.6" width="82.22" height="64.42" transform="translate(-438.91 842.64) rotate(-71.38)" style="fill:#fff"/><path d="M385,775.73l-63.75-21.47,27.13-80.58,63.75,21.47Zm-60-23.35,58.06,19.54L408.37,697l-58.06-19.55Z" transform="translate(0 0)" style="fill:#231f20"/><path d="M362,704.59l11.55-7.1,4.61,1.55-3.32,9.88,9.21,3.1-1.55,4.61-8.89-3s-12.93,27.52-9.87,31.49a11,11,0,0,0,7.79,4.08s-12.66,10.4-22.17-7.09l11.29-33.57-4.92-1.62L357,703.3Z" transform="translate(0 0)" style="fill:#010101"/><rect x="136.66" y="12.8" width="70.78" height="84.8" style="fill:none"/><rect x="135.37" y="27.18" width="73.34" height="56.07" transform="translate(87.82 215.06) rotate(-80.01)" style="fill:#fff"/><path d="M207.44,22.92,149.8,12.8,136.66,87.45,194.3,97.6Zm-55.65-7.3,52.8,9.3L192.3,94.73l-52.8-9.3Z" transform="translate(0 0)" style="fill:#231f20"/><polygon points="160.81 30.16 173.47 32.38 167.26 67.67 184.93 70.97 182.94 82.27 152.57 76.92 160.81 30.16" style="fill:#010101"/><rect x="311.22" y="327.51" width="86.05" height="97.38" style="fill:none"/><rect x="314.79" y="345.27" width="78.95" height="61.85" transform="translate(-109.34 604.42) rotate(-72.93)" style="fill:#fff"/><path d="M373.21,424.92l-62-19,24.06-78.34,62,19Zm-58.24-21,56.26,17.28,22.29-72.61-56.26-17.32Z" transform="translate(0 0)" style="fill:#231f20"/><path d="M364.77,385.61c-.66,2.87-2,5.16-7.48,5.38-4.1.16-12.75-2.8-11.25-10.93l-10.38-.33S335,391.92,348.36,397c14.51,5.57,29-1.35,26.91-16.83-1-7.4-8.64-9.43-17.62-15.65-1.86-1.28-4.47-7.57,2.48-8.7,4-.66,9.43,2,10.32,8.5l10.71-.19s-2.15-12.33-14.51-16c-10.09-3-17.42,1-19.86,5.08L335,352.92l10.65,3.57-10.14.71,11.53,3.54-13,1.68,12.69,2.05-13.6,2.71,15.93,1.32-14.77,3.05,18.25.93-11.74,3.2,17,1.55-7.32,2.15,12.62,1.89-7.8,2.7Z" transform="translate(0 0)" style="fill:#010101"/></svg>