<svg id="Слой_1" data-name="Слой 1" xmlns="http://www.w3.org/2000/svg" viewBox="0 0 343.81 135.99"><title>6666</title><rect x="1.5" y="1.5" width="64.26" height="82.02" style="fill:#fff"/><path d="M308.27,100.59H241v-85h67.26Zm-64.26-3h61.26v-79H244Z" transform="translate(-241.01 -15.57)" style="fill:#231f20"/><path d="M286,48.62h11.68s1.22-20.28-19.07-19.16C251.88,30.93,240.84,82.15,265,86.21c0,0,22.56,5.15,27.62-16.22l-11.67-.37s-2.73,10.32-14,8.11-4.75-41.07,11.67-40.54C289.86,37.56,286,48.62,286,48.62Z" transform="translate(-241.01 -15.57)" style="fill:#010101"/><rect x="329.83" y="48.13" width="64.26" height="82.02" transform="translate(-250.1 37.79) rotate(-8.33)" style="fill:#fff"/><path d="M334.85,136.07,322.53,52l66.55-9.75,12.32,84.13Zm-8.92-81.59,11.45,78.19L398,123.8,386.55,45.61Z" transform="translate(-241.01 -15.57)" style="fill:#231f20"/><path d="M349.36,59.33s-12.86,57-.87,62.64,8.81-12.75,12.25-20.22c0,0,4.28,13.78,12.22,11.65s11.4-10.58,11.42-18.19c0,0-1.37-2.71-4.14-.68s-3.09,12.1-7.55,12.59.13-15.72,2.49-20.6-8.32-9.3-9.39-8.82-13.31,27.36-13.75,31,7-39.39,9.13-43.75S351.45,55.74,349.36,59.33Z" transform="translate(-241.01 -15.57)" style="fill:#010101"/><rect x="506.93" y="37.71" width="64.26" height="82.02" transform="translate(-236.83 166.48) rotate(-19.24)" style="fill:#fff"/><path d="M521.31,129.94l-28-80.27L556.8,27.5l28,80.27Zm-24.2-78.43,26,74.61L581,105.93,555,31.32Z" transform="translate(-241.01 -15.57)" style="fill:#231f20"/><path d="M508.58,56s9.88,31.51,12.74,36.48,8.16,15.33,25.29,9.64,16.24-17.89,14.89-23.38-11.82-37.08-11.82-37.08L538.4,45.61s11.14,31.92,11.36,35,1.37,7.76-6.17,10.4-10.9-1.32-12.32-6.22-11.66-32.59-11.66-32.59Z" transform="translate(-241.01 -15.57)" style="fill:#010101"/><rect x="399.06" y="60.82" width="64.26" height="82.02" transform="translate(-200.4 -122.88) rotate(14.88)" style="fill:#fff"/><path d="M452.78,151.56l-65-17.28L409.6,52.11l65,17.27Zm-61.34-19.4,59.21,15.73,20.29-76.38L411.73,55.78Z" transform="translate(-241.01 -15.57)" style="fill:#231f20"/><polygon points="172.46 85.17 181.97 87.69 194.9 68.14 197.56 91.84 205.55 93.96 202.79 57.61 193.28 55.08 172.46 85.17" style="fill:#010101"/><polygon points="168.39 91.28 206.81 101.49 208.06 119.01 200.45 116.99 198.97 108 171.77 100.78 166.4 107.95 158.41 105.82 168.39 91.28" style="fill:#010101"/></svg>