<svg id="Слой_1" data-name="Слой 1" xmlns="http://www.w3.org/2000/svg" viewBox="0 0 329.48 120.85"><title>7777</title><rect x="449.88" y="41.2" width="64.26" height="82.02" transform="translate(-276.04 152.38) rotate(-20.66)" style="fill:#fff"/><path d="M465.54,133.86l-30-79.56,62.94-23.73,30,79.56ZM439.41,56.05,467.29,130l57.32-21.61L496.73,34.44Z" transform="translate(-278.03 -22.96)" style="fill:#231f20"/><path d="M453,70.25l4.8.74,5.26,13.9-2.67,3.85,4.19,1L471,106.5l-3.07,3.68,1.46,4.06L486.24,108l-1.15-3.65-4.54-1L472.84,80l25.71,22.91,12.6-4.77-1.35-4.29s-4.49.31-4.91-.46-5.13-16.86-5.13-16.86l2.56-3.61-4-.86s-5.32-11.87-5-13.68,2.82-3.9,2.82-3.9l-1.35-4.29-16.52,5.71,1.11,4.66,4.89,1,8.26,24L465.34,60.7l-13.81,4.75Z" transform="translate(-278.03 -22.96)" style="fill:#010101"/><rect x="375.33" y="32.57" width="64.26" height="82.02" transform="translate(-269.83 -59.07) rotate(5.13)" style="fill:#fff"/><path d="M437.16,118.93l-67-6,7.59-84.68,67,6Zm-63.74-8.73,61,5.47L441.5,37l-61-5.48Z" transform="translate(-278.03 -22.96)" style="fill:#231f20"/><path d="M423.66,55.79l-29-2.6a10.36,10.36,0,0,0-11.24,9.39l-1.36,15.2A10.35,10.35,0,0,0,391.47,89l29,2.6a10.35,10.35,0,0,0,11.24-9.39L433.05,67A10.36,10.36,0,0,0,423.66,55.79Zm-2.94,22a5.64,5.64,0,0,1-6.13,5.12l-15.81-1.42a5.65,5.65,0,0,1-5.12-6.13l.75-8.29a5.64,5.64,0,0,1,6.13-5.12l15.8,1.42a5.65,5.65,0,0,1,5.13,6.13Z" transform="translate(-278.03 -22.96)" style="fill:#010101"/><rect x="290.81" y="32.63" width="64.26" height="82.02" transform="translate(-285.19 78.08) rotate(-17.59)" style="fill:#fff"/><path d="M303.73,124.33l-25.7-81L342.15,23,367.84,104ZM281.8,45.24l23.88,75.33,58.4-18.52L340.19,26.72Z" transform="translate(-278.03 -22.96)" style="fill:#231f20"/><polygon points="21.7 39.09 40.39 28.25 48.53 45.6 48.67 24.28 56.44 19.9 76.31 59.27 68.88 62.88 56.47 46.52 57.32 67.44 48.78 72.03 41.25 54.93 40.91 75.48 23.45 82.15 32.46 74.14 22.77 76.97 32.12 70.25 22.71 72.59 32.19 66.39 23.53 68.95 31.66 62.27 23.12 64.25 32.15 57.89 22.87 60.2 31.87 53.7 21.46 55.9 31.61 49.1 21.58 52.71 31.27 45.21 22.81 48 31.83 41.08 21.37 44.12 30.27 37.24 21.7 39.09" style="fill:#010101"/><rect x="529.94" y="51.77" width="64.26" height="82.02" transform="matrix(0.95, 0.32, -0.32, 0.95, -219.04, -197.46)" style="fill:#fff"/><path d="M580.38,143.81l-63.75-21.47,27.13-80.58,63.75,21.47Zm-60-23.35L578.49,140l25.22-74.89L545.65,45.56Z" transform="translate(-278.03 -22.96)" style="fill:#231f20"/><path d="M557.35,72.67l11.55-7.1,4.61,1.55L570.19,77l9.21,3.1-1.55,4.61-8.89-3s-12.93,27.52-9.87,31.49a11,11,0,0,0,7.79,4.08s-12.66,10.4-22.17-7.09L556,76.62,551.08,75l1.22-3.62Z" transform="translate(-278.03 -22.96)" style="fill:#010101"/></svg>